<svg width="230" height="54" viewBox="0 0 230 54" fill="none" xmlns="http://www.w3.org/2000/svg">
<g opacity="0.7">
<path d="M82.3124 30.0322V17.4322H84.7244L92.1584 26.5042H90.9884V17.4322H93.8684V30.0322H91.4744L84.0224 20.9602H85.1924V30.0322H82.3124ZM101.259 30.1762C100.227 30.1762 99.3095 29.9602 98.5055 29.5282C97.7135 29.0962 97.0835 28.5082 96.6155 27.7642C96.1595 27.0082 95.9315 26.1502 95.9315 25.1902C95.9315 24.2182 96.1595 23.3602 96.6155 22.6162C97.0835 21.8602 97.7135 21.2722 98.5055 20.8522C99.3095 20.4202 100.227 20.2042 101.259 20.2042C102.279 20.2042 103.191 20.4202 103.995 20.8522C104.799 21.2722 105.429 21.8542 105.885 22.5982C106.341 23.3422 106.569 24.2062 106.569 25.1902C106.569 26.1502 106.341 27.0082 105.885 27.7642C105.429 28.5082 104.799 29.0962 103.995 29.5282C103.191 29.9602 102.279 30.1762 101.259 30.1762ZM101.259 27.8722C101.727 27.8722 102.147 27.7642 102.519 27.5482C102.891 27.3322 103.185 27.0262 103.401 26.6302C103.617 26.2222 103.725 25.7422 103.725 25.1902C103.725 24.6262 103.617 24.1462 103.401 23.7502C103.185 23.3542 102.891 23.0482 102.519 22.8322C102.147 22.6162 101.727 22.5082 101.259 22.5082C100.791 22.5082 100.371 22.6162 99.9995 22.8322C99.6275 23.0482 99.3275 23.3542 99.0995 23.7502C98.8835 24.1462 98.7755 24.6262 98.7755 25.1902C98.7755 25.7422 98.8835 26.2222 99.0995 26.6302C99.3275 27.0262 99.6275 27.3322 99.9995 27.5482C100.371 27.7642 100.791 27.8722 101.259 27.8722ZM110.811 30.0322L106.743 20.3482H109.641L113.025 28.6822H111.585L115.095 20.3482H117.795L113.709 30.0322H110.811ZM124.564 30.0322V28.1422L124.384 27.7282V24.3442C124.384 23.7442 124.198 23.2762 123.826 22.9402C123.466 22.6042 122.908 22.4362 122.152 22.4362C121.636 22.4362 121.126 22.5202 120.622 22.6882C120.13 22.8442 119.71 23.0602 119.362 23.3362L118.354 21.3742C118.882 21.0022 119.518 20.7142 120.262 20.5102C121.006 20.3062 121.762 20.2042 122.53 20.2042C124.006 20.2042 125.152 20.5522 125.968 21.2482C126.784 21.9442 127.192 23.0302 127.192 24.5062V30.0322H124.564ZM121.612 30.1762C120.856 30.1762 120.208 30.0502 119.668 29.7982C119.128 29.5342 118.714 29.1802 118.426 28.7362C118.138 28.2922 117.994 27.7942 117.994 27.2422C117.994 26.6662 118.132 26.1622 118.408 25.7302C118.696 25.2982 119.146 24.9622 119.758 24.7222C120.37 24.4702 121.168 24.3442 122.152 24.3442H124.726V25.9822H122.458C121.798 25.9822 121.342 26.0902 121.09 26.3062C120.85 26.5222 120.73 26.7922 120.73 27.1162C120.73 27.4762 120.868 27.7642 121.144 27.9802C121.432 28.1842 121.822 28.2862 122.314 28.2862C122.782 28.2862 123.202 28.1782 123.574 27.9622C123.946 27.7342 124.216 27.4042 124.384 26.9722L124.816 28.2682C124.612 28.8922 124.24 29.3662 123.7 29.6902C123.16 30.0142 122.464 30.1762 121.612 30.1762ZM134.072 30.2482C133.064 30.2482 132.098 30.1162 131.174 29.8522C130.25 29.5762 129.506 29.2222 128.942 28.7902L129.932 26.5942C130.472 26.9782 131.108 27.2962 131.84 27.5482C132.584 27.7882 133.334 27.9082 134.09 27.9082C134.666 27.9082 135.128 27.8542 135.476 27.7462C135.836 27.6262 136.1 27.4642 136.268 27.2602C136.436 27.0562 136.52 26.8222 136.52 26.5582C136.52 26.2222 136.388 25.9582 136.124 25.7662C135.86 25.5622 135.512 25.4002 135.08 25.2802C134.648 25.1482 134.168 25.0282 133.64 24.9202C133.124 24.8002 132.602 24.6562 132.074 24.4882C131.558 24.3202 131.084 24.1042 130.652 23.8402C130.22 23.5762 129.866 23.2282 129.59 22.7962C129.326 22.3642 129.194 21.8122 129.194 21.1402C129.194 20.4202 129.386 19.7662 129.77 19.1782C130.166 18.5782 130.754 18.1042 131.534 17.7562C132.326 17.3962 133.316 17.2162 134.504 17.2162C135.296 17.2162 136.076 17.3122 136.844 17.5042C137.612 17.6842 138.29 17.9602 138.878 18.3322L137.978 20.5462C137.39 20.2102 136.802 19.9642 136.214 19.8082C135.626 19.6402 135.05 19.5562 134.486 19.5562C133.922 19.5562 133.46 19.6222 133.1 19.7542C132.74 19.8862 132.482 20.0602 132.326 20.2762C132.17 20.4802 132.092 20.7202 132.092 20.9962C132.092 21.3202 132.224 21.5842 132.488 21.7882C132.752 21.9802 133.1 22.1362 133.532 22.2562C133.964 22.3762 134.438 22.4962 134.954 22.6162C135.482 22.7362 136.004 22.8742 136.52 23.0302C137.048 23.1862 137.528 23.3962 137.96 23.6602C138.392 23.9242 138.74 24.2722 139.004 24.7042C139.28 25.1362 139.418 25.6822 139.418 26.3422C139.418 27.0502 139.22 27.6982 138.824 28.2862C138.428 28.8742 137.834 29.3482 137.042 29.7082C136.262 30.0682 135.272 30.2482 134.072 30.2482ZM153.614 20.2042C154.382 20.2042 155.06 20.3602 155.648 20.6722C156.248 20.9722 156.716 21.4402 157.052 22.0762C157.4 22.7002 157.574 23.5042 157.574 24.4882V30.0322H154.766V24.9202C154.766 24.1402 154.604 23.5642 154.28 23.1922C153.956 22.8202 153.5 22.6342 152.912 22.6342C152.504 22.6342 152.138 22.7302 151.814 22.9222C151.49 23.1022 151.238 23.3782 151.058 23.7502C150.878 24.1222 150.788 24.5962 150.788 25.1722V30.0322H147.98V24.9202C147.98 24.1402 147.818 23.5642 147.494 23.1922C147.182 22.8202 146.732 22.6342 146.144 22.6342C145.736 22.6342 145.37 22.7302 145.046 22.9222C144.722 23.1022 144.47 23.3782 144.29 23.7502C144.11 24.1222 144.02 24.5962 144.02 25.1722V30.0322H141.212V20.3482H143.894V22.9942L143.39 22.2202C143.726 21.5602 144.2 21.0622 144.812 20.7262C145.436 20.3782 146.144 20.2042 146.936 20.2042C147.824 20.2042 148.598 20.4322 149.258 20.8882C149.93 21.3322 150.374 22.0162 150.59 22.9402L149.6 22.6702C149.924 21.9142 150.44 21.3142 151.148 20.8702C151.868 20.4262 152.69 20.2042 153.614 20.2042ZM160.091 30.0322V20.3482H162.899V30.0322H160.091ZM161.495 18.9982C160.979 18.9982 160.559 18.8482 160.235 18.5482C159.911 18.2482 159.749 17.8762 159.749 17.4322C159.749 16.9882 159.911 16.6162 160.235 16.3162C160.559 16.0162 160.979 15.8662 161.495 15.8662C162.011 15.8662 162.431 16.0102 162.755 16.2982C163.079 16.5742 163.241 16.9342 163.241 17.3782C163.241 17.8462 163.079 18.2362 162.755 18.5482C162.443 18.8482 162.023 18.9982 161.495 18.9982ZM165.505 30.0322V16.6762H168.313V30.0322H165.505ZM175.725 30.1762C174.621 30.1762 173.649 29.9602 172.809 29.5282C171.981 29.0962 171.339 28.5082 170.883 27.7642C170.427 27.0082 170.199 26.1502 170.199 25.1902C170.199 24.2182 170.421 23.3602 170.865 22.6162C171.321 21.8602 171.939 21.2722 172.719 20.8522C173.499 20.4202 174.381 20.2042 175.365 20.2042C176.313 20.2042 177.165 20.4082 177.921 20.8162C178.689 21.2122 179.295 21.7882 179.739 22.5442C180.183 23.2882 180.405 24.1822 180.405 25.2262C180.405 25.3342 180.399 25.4602 180.387 25.6042C180.375 25.7362 180.363 25.8622 180.351 25.9822H172.485V24.3442H178.875L177.795 24.8302C177.795 24.3262 177.693 23.8882 177.489 23.5162C177.285 23.1442 177.003 22.8562 176.643 22.6522C176.283 22.4362 175.863 22.3282 175.383 22.3282C174.903 22.3282 174.477 22.4362 174.105 22.6522C173.745 22.8562 173.463 23.1502 173.259 23.5342C173.055 23.9062 172.953 24.3502 172.953 24.8662V25.2982C172.953 25.8262 173.067 26.2942 173.295 26.7022C173.535 27.0982 173.865 27.4042 174.285 27.6202C174.717 27.8242 175.221 27.9262 175.797 27.9262C176.313 27.9262 176.763 27.8482 177.147 27.6922C177.543 27.5362 177.903 27.3022 178.227 26.9902L179.721 28.6102C179.277 29.1142 178.719 29.5042 178.047 29.7802C177.375 30.0442 176.601 30.1762 175.725 30.1762ZM187.57 30.0322V17.4322H190.486V27.6562H196.804V30.0322H187.57ZM204.246 30.0322V28.1422L204.066 27.7282V24.3442C204.066 23.7442 203.88 23.2762 203.508 22.9402C203.148 22.6042 202.59 22.4362 201.834 22.4362C201.318 22.4362 200.808 22.5202 200.304 22.6882C199.812 22.8442 199.392 23.0602 199.044 23.3362L198.036 21.3742C198.564 21.0022 199.2 20.7142 199.944 20.5102C200.688 20.3062 201.444 20.2042 202.212 20.2042C203.688 20.2042 204.834 20.5522 205.65 21.2482C206.466 21.9442 206.874 23.0302 206.874 24.5062V30.0322H204.246ZM201.294 30.1762C200.538 30.1762 199.89 30.0502 199.35 29.7982C198.81 29.5342 198.396 29.1802 198.108 28.7362C197.82 28.2922 197.676 27.7942 197.676 27.2422C197.676 26.6662 197.814 26.1622 198.09 25.7302C198.378 25.2982 198.828 24.9622 199.44 24.7222C200.052 24.4702 200.85 24.3442 201.834 24.3442H204.408V25.9822H202.14C201.48 25.9822 201.024 26.0902 200.772 26.3062C200.532 26.5222 200.412 26.7922 200.412 27.1162C200.412 27.4762 200.55 27.7642 200.826 27.9802C201.114 28.1842 201.504 28.2862 201.996 28.2862C202.464 28.2862 202.884 28.1782 203.256 27.9622C203.628 27.7342 203.898 27.4042 204.066 26.9722L204.498 28.2682C204.294 28.8922 203.922 29.3662 203.382 29.6902C202.842 30.0142 202.146 30.1762 201.294 30.1762ZM215.139 30.1762C214.287 30.1762 213.555 29.9962 212.943 29.6362C212.331 29.2762 211.863 28.7302 211.539 27.9982C211.215 27.2542 211.053 26.3182 211.053 25.1902C211.053 24.0502 211.221 23.1142 211.557 22.3822C211.905 21.6502 212.385 21.1042 212.997 20.7442C213.609 20.3842 214.323 20.2042 215.139 20.2042C216.051 20.2042 216.867 20.4082 217.587 20.8162C218.319 21.2242 218.895 21.8002 219.315 22.5442C219.747 23.2882 219.963 24.1702 219.963 25.1902C219.963 26.1982 219.747 27.0742 219.315 27.8182C218.895 28.5622 218.319 29.1442 217.587 29.5642C216.867 29.9722 216.051 30.1762 215.139 30.1762ZM209.415 30.0322V16.6762H212.223V22.3102L212.043 25.1722L212.097 28.0522V30.0322H209.415ZM214.653 27.8722C215.121 27.8722 215.535 27.7642 215.895 27.5482C216.267 27.3322 216.561 27.0262 216.777 26.6302C217.005 26.2222 217.119 25.7422 217.119 25.1902C217.119 24.6262 217.005 24.1462 216.777 23.7502C216.561 23.3542 216.267 23.0482 215.895 22.8322C215.535 22.6162 215.121 22.5082 214.653 22.5082C214.185 22.5082 213.765 22.6162 213.393 22.8322C213.021 23.0482 212.727 23.3542 212.511 23.7502C212.295 24.1462 212.187 24.6262 212.187 25.1902C212.187 25.7422 212.295 26.2222 212.511 26.6302C212.727 27.0262 213.021 27.3322 213.393 27.5482C213.765 27.7642 214.185 27.8722 214.653 27.8722ZM225.101 30.1762C224.273 30.1762 223.475 30.0802 222.707 29.8882C221.951 29.6842 221.351 29.4322 220.907 29.1322L221.843 27.1162C222.287 27.3922 222.809 27.6202 223.409 27.8002C224.021 27.9682 224.621 28.0522 225.209 28.0522C225.857 28.0522 226.313 27.9742 226.577 27.8182C226.853 27.6622 226.991 27.4462 226.991 27.1702C226.991 26.9422 226.883 26.7742 226.667 26.6662C226.463 26.5462 226.187 26.4562 225.839 26.3962C225.491 26.3362 225.107 26.2762 224.687 26.2162C224.279 26.1562 223.865 26.0782 223.445 25.9822C223.025 25.8742 222.641 25.7182 222.293 25.5142C221.945 25.3102 221.663 25.0342 221.447 24.6862C221.243 24.3382 221.141 23.8882 221.141 23.3362C221.141 22.7242 221.315 22.1842 221.663 21.7162C222.023 21.2482 222.539 20.8822 223.211 20.6182C223.883 20.3422 224.687 20.2042 225.623 20.2042C226.283 20.2042 226.955 20.2762 227.639 20.4202C228.323 20.5642 228.893 20.7742 229.349 21.0502L228.413 23.0482C227.945 22.7722 227.471 22.5862 226.991 22.4902C226.523 22.3822 226.067 22.3282 225.623 22.3282C224.999 22.3282 224.543 22.4122 224.255 22.5802C223.967 22.7482 223.823 22.9642 223.823 23.2282C223.823 23.4682 223.925 23.6482 224.129 23.7682C224.345 23.8882 224.627 23.9842 224.975 24.0562C225.323 24.1282 225.701 24.1942 226.109 24.2542C226.529 24.3022 226.949 24.3802 227.369 24.4882C227.789 24.5962 228.167 24.7522 228.503 24.9562C228.851 25.1482 229.133 25.4182 229.349 25.7662C229.565 26.1022 229.673 26.5462 229.673 27.0982C229.673 27.6982 229.493 28.2322 229.133 28.7002C228.773 29.1562 228.251 29.5162 227.567 29.7802C226.895 30.0442 226.073 30.1762 225.101 30.1762Z" fill="#C7F0FD"/>
<path d="M83.762 44.6651C83.276 44.6651 82.823 44.5871 82.403 44.4311C81.989 44.2691 81.629 44.0411 81.323 43.7471C81.017 43.4531 80.777 43.1081 80.603 42.7121C80.435 42.3161 80.351 41.8811 80.351 41.4071C80.351 40.9331 80.435 40.4981 80.603 40.1021C80.777 39.7061 81.017 39.3611 81.323 39.0671C81.635 38.7731 81.998 38.5481 82.412 38.3921C82.826 38.2301 83.279 38.1491 83.771 38.1491C84.317 38.1491 84.809 38.2451 85.247 38.4371C85.691 38.6231 86.063 38.8991 86.363 39.2651L85.427 40.1291C85.211 39.8831 84.971 39.7001 84.707 39.5801C84.443 39.4541 84.155 39.3911 83.843 39.3911C83.549 39.3911 83.279 39.4391 83.033 39.5351C82.787 39.6311 82.574 39.7691 82.394 39.9491C82.214 40.1291 82.073 40.3421 81.971 40.5881C81.875 40.8341 81.827 41.1071 81.827 41.4071C81.827 41.7071 81.875 41.9801 81.971 42.2261C82.073 42.4721 82.214 42.6851 82.394 42.8651C82.574 43.0451 82.787 43.1831 83.033 43.2791C83.279 43.3751 83.549 43.4231 83.843 43.4231C84.155 43.4231 84.443 43.3631 84.707 43.2431C84.971 43.1171 85.211 42.9281 85.427 42.6761L86.363 43.5401C86.063 43.9061 85.691 44.1851 85.247 44.3771C84.809 44.5691 84.314 44.6651 83.762 44.6651ZM89.1773 44.6291C88.7753 44.6291 88.4153 44.5511 88.0973 44.3951C87.7853 44.2391 87.5423 44.0021 87.3683 43.6841C87.1943 43.3601 87.1073 42.9491 87.1073 42.4511V39.7151H88.5113V42.2441C88.5113 42.6461 88.5953 42.9431 88.7633 43.1351C88.9373 43.3211 89.1803 43.4141 89.4923 43.4141C89.7083 43.4141 89.9003 43.3691 90.0683 43.2791C90.2363 43.1831 90.3683 43.0391 90.4643 42.8471C90.5603 42.6491 90.6083 42.4031 90.6083 42.1091V39.7151H92.0123V44.5571H90.6803V43.2251L90.9233 43.6121C90.7613 43.9481 90.5213 44.2031 90.2033 44.3771C89.8913 44.5451 89.5493 44.6291 89.1773 44.6291ZM94.942 44.6291C94.528 44.6291 94.129 44.5811 93.745 44.4851C93.367 44.3831 93.067 44.2571 92.845 44.1071L93.313 43.0991C93.535 43.2371 93.796 43.3511 94.096 43.4411C94.402 43.5251 94.702 43.5671 94.996 43.5671C95.32 43.5671 95.548 43.5281 95.68 43.4501C95.818 43.3721 95.887 43.2641 95.887 43.1261C95.887 43.0121 95.833 42.9281 95.725 42.8741C95.623 42.8141 95.485 42.7691 95.311 42.7391C95.137 42.7091 94.945 42.6791 94.735 42.6491C94.531 42.6191 94.324 42.5801 94.114 42.5321C93.904 42.4781 93.712 42.4001 93.538 42.2981C93.364 42.1961 93.223 42.0581 93.115 41.8841C93.013 41.7101 92.962 41.4851 92.962 41.2091C92.962 40.9031 93.049 40.6331 93.223 40.3991C93.403 40.1651 93.661 39.9821 93.997 39.8501C94.333 39.7121 94.735 39.6431 95.203 39.6431C95.533 39.6431 95.869 39.6791 96.211 39.7511C96.553 39.8231 96.838 39.9281 97.066 40.0661L96.598 41.0651C96.364 40.9271 96.127 40.8341 95.887 40.7861C95.653 40.7321 95.425 40.7051 95.203 40.7051C94.891 40.7051 94.663 40.7471 94.519 40.8311C94.375 40.9151 94.303 41.0231 94.303 41.1551C94.303 41.2751 94.354 41.3651 94.456 41.4251C94.564 41.4851 94.705 41.5331 94.879 41.5691C95.053 41.6051 95.242 41.6381 95.446 41.6681C95.656 41.6921 95.866 41.7311 96.076 41.7851C96.286 41.8391 96.475 41.9171 96.643 42.0191C96.817 42.1151 96.958 42.2501 97.066 42.4241C97.174 42.5921 97.228 42.8141 97.228 43.0901C97.228 43.3901 97.138 43.6571 96.958 43.8911C96.778 44.1191 96.517 44.2991 96.175 44.4311C95.839 44.5631 95.428 44.6291 94.942 44.6291ZM100.074 44.6291C99.5043 44.6291 99.0603 44.4851 98.7423 44.1971C98.4243 43.9031 98.2653 43.4681 98.2653 42.8921V38.6441H99.6693V42.8741C99.6693 43.0781 99.7233 43.2371 99.8313 43.3511C99.9393 43.4591 100.086 43.5131 100.272 43.5131C100.494 43.5131 100.683 43.4531 100.839 43.3331L101.217 44.3231C101.073 44.4251 100.899 44.5031 100.695 44.5571C100.497 44.6051 100.29 44.6291 100.074 44.6291ZM97.5183 40.9031V39.8231H100.875V40.9031H97.5183ZM104.16 44.6291C103.644 44.6291 103.185 44.5211 102.783 44.3051C102.387 44.0891 102.072 43.7951 101.838 43.4231C101.61 43.0451 101.496 42.6161 101.496 42.1361C101.496 41.6501 101.61 41.2211 101.838 40.8491C102.072 40.4711 102.387 40.1771 102.783 39.9671C103.185 39.7511 103.644 39.6431 104.16 39.6431C104.67 39.6431 105.126 39.7511 105.528 39.9671C105.93 40.1771 106.245 40.4681 106.473 40.8401C106.701 41.2121 106.815 41.6441 106.815 42.1361C106.815 42.6161 106.701 43.0451 106.473 43.4231C106.245 43.7951 105.93 44.0891 105.528 44.3051C105.126 44.5211 104.67 44.6291 104.16 44.6291ZM104.16 43.4771C104.394 43.4771 104.604 43.4231 104.79 43.3151C104.976 43.2071 105.123 43.0541 105.231 42.8561C105.339 42.6521 105.393 42.4121 105.393 42.1361C105.393 41.8541 105.339 41.6141 105.231 41.4161C105.123 41.2181 104.976 41.0651 104.79 40.9571C104.604 40.8491 104.394 40.7951 104.16 40.7951C103.926 40.7951 103.716 40.8491 103.53 40.9571C103.344 41.0651 103.194 41.2181 103.08 41.4161C102.972 41.6141 102.918 41.8541 102.918 42.1361C102.918 42.4121 102.972 42.6521 103.08 42.8561C103.194 43.0541 103.344 43.2071 103.53 43.3151C103.716 43.4231 103.926 43.4771 104.16 43.4771ZM113.954 39.6431C114.338 39.6431 114.677 39.7211 114.971 39.8771C115.271 40.0271 115.505 40.2611 115.673 40.5791C115.847 40.8911 115.934 41.2931 115.934 41.7851V44.5571H114.53V42.0011C114.53 41.6111 114.449 41.3231 114.287 41.1371C114.125 40.9511 113.897 40.8581 113.603 40.8581C113.399 40.8581 113.216 40.9061 113.054 41.0021C112.892 41.0921 112.766 41.2301 112.676 41.4161C112.586 41.6021 112.541 41.8391 112.541 42.1271V44.5571H111.137V42.0011C111.137 41.6111 111.056 41.3231 110.894 41.1371C110.738 40.9511 110.513 40.8581 110.219 40.8581C110.015 40.8581 109.832 40.9061 109.67 41.0021C109.508 41.0921 109.382 41.2301 109.292 41.4161C109.202 41.6021 109.157 41.8391 109.157 42.1271V44.5571H107.753V39.7151H109.094V41.0381L108.842 40.6511C109.01 40.3211 109.247 40.0721 109.553 39.9041C109.865 39.7301 110.219 39.6431 110.615 39.6431C111.059 39.6431 111.446 39.7571 111.776 39.9851C112.112 40.2071 112.334 40.5491 112.442 41.0111L111.947 40.8761C112.109 40.4981 112.367 40.1981 112.721 39.9761C113.081 39.7541 113.492 39.6431 113.954 39.6431ZM119.742 44.5571V39.7151H121.083V41.0831L120.894 40.6871C121.038 40.3451 121.269 40.0871 121.587 39.9131C121.905 39.7331 122.292 39.6431 122.748 39.6431V40.9391C122.688 40.9331 122.634 40.9301 122.586 40.9301C122.538 40.9241 122.487 40.9211 122.433 40.9211C122.049 40.9211 121.737 41.0321 121.497 41.2541C121.263 41.4701 121.146 41.8091 121.146 42.2711V44.5571H119.742ZM125.95 44.6291C125.398 44.6291 124.912 44.5211 124.492 44.3051C124.078 44.0891 123.757 43.7951 123.529 43.4231C123.301 43.0451 123.187 42.6161 123.187 42.1361C123.187 41.6501 123.298 41.2211 123.52 40.8491C123.748 40.4711 124.057 40.1771 124.447 39.9671C124.837 39.7511 125.278 39.6431 125.77 39.6431C126.244 39.6431 126.67 39.7451 127.048 39.9491C127.432 40.1471 127.735 40.4351 127.957 40.8131C128.179 41.1851 128.29 41.6321 128.29 42.1541C128.29 42.2081 128.287 42.2711 128.281 42.3431C128.275 42.4091 128.269 42.4721 128.263 42.5321H124.33V41.7131H127.525L126.985 41.9561C126.985 41.7041 126.934 41.4851 126.832 41.2991C126.73 41.1131 126.589 40.9691 126.409 40.8671C126.229 40.7591 126.019 40.7051 125.779 40.7051C125.539 40.7051 125.326 40.7591 125.14 40.8671C124.96 40.9691 124.819 41.1161 124.717 41.3081C124.615 41.4941 124.564 41.7161 124.564 41.9741V42.1901C124.564 42.4541 124.621 42.6881 124.735 42.8921C124.855 43.0901 125.02 43.2431 125.23 43.3511C125.446 43.4531 125.698 43.5041 125.986 43.5041C126.244 43.5041 126.469 43.4651 126.661 43.3871C126.859 43.3091 127.039 43.1921 127.201 43.0361L127.948 43.8461C127.726 44.0981 127.447 44.2931 127.111 44.4311C126.775 44.5631 126.388 44.6291 125.95 44.6291ZM130.854 44.6291C130.44 44.6291 130.041 44.5811 129.657 44.4851C129.279 44.3831 128.979 44.2571 128.757 44.1071L129.225 43.0991C129.447 43.2371 129.708 43.3511 130.008 43.4411C130.314 43.5251 130.614 43.5671 130.908 43.5671C131.232 43.5671 131.46 43.5281 131.592 43.4501C131.73 43.3721 131.799 43.2641 131.799 43.1261C131.799 43.0121 131.745 42.9281 131.637 42.8741C131.535 42.8141 131.397 42.7691 131.223 42.7391C131.049 42.7091 130.857 42.6791 130.647 42.6491C130.443 42.6191 130.236 42.5801 130.026 42.5321C129.816 42.4781 129.624 42.4001 129.45 42.2981C129.276 42.1961 129.135 42.0581 129.027 41.8841C128.925 41.7101 128.874 41.4851 128.874 41.2091C128.874 40.9031 128.961 40.6331 129.135 40.3991C129.315 40.1651 129.573 39.9821 129.909 39.8501C130.245 39.7121 130.647 39.6431 131.115 39.6431C131.445 39.6431 131.781 39.6791 132.123 39.7511C132.465 39.8231 132.75 39.9281 132.978 40.0661L132.51 41.0651C132.276 40.9271 132.039 40.8341 131.799 40.7861C131.565 40.7321 131.337 40.7051 131.115 40.7051C130.803 40.7051 130.575 40.7471 130.431 40.8311C130.287 40.9151 130.215 41.0231 130.215 41.1551C130.215 41.2751 130.266 41.3651 130.368 41.4251C130.476 41.4851 130.617 41.5331 130.791 41.5691C130.965 41.6051 131.154 41.6381 131.358 41.6681C131.568 41.6921 131.778 41.7311 131.988 41.7851C132.198 41.8391 132.387 41.9171 132.555 42.0191C132.729 42.1151 132.87 42.2501 132.978 42.4241C133.086 42.5921 133.14 42.8141 133.14 43.0901C133.14 43.3901 133.05 43.6571 132.87 43.8911C132.69 44.1191 132.429 44.2991 132.087 44.4311C131.751 44.5631 131.34 44.6291 130.854 44.6291ZM135.986 44.6291C135.416 44.6291 134.972 44.4851 134.654 44.1971C134.336 43.9031 134.177 43.4681 134.177 42.8921V38.6441H135.581V42.8741C135.581 43.0781 135.635 43.2371 135.743 43.3511C135.851 43.4591 135.998 43.5131 136.184 43.5131C136.406 43.5131 136.595 43.4531 136.751 43.3331L137.129 44.3231C136.985 44.4251 136.811 44.5031 136.607 44.5571C136.409 44.6051 136.202 44.6291 135.986 44.6291ZM133.43 40.9031V39.8231H136.787V40.9031H133.43ZM140.072 44.6291C139.556 44.6291 139.097 44.5211 138.695 44.3051C138.299 44.0891 137.984 43.7951 137.75 43.4231C137.522 43.0451 137.408 42.6161 137.408 42.1361C137.408 41.6501 137.522 41.2211 137.75 40.8491C137.984 40.4711 138.299 40.1771 138.695 39.9671C139.097 39.7511 139.556 39.6431 140.072 39.6431C140.582 39.6431 141.038 39.7511 141.44 39.9671C141.842 40.1771 142.157 40.4681 142.385 40.8401C142.613 41.2121 142.727 41.6441 142.727 42.1361C142.727 42.6161 142.613 43.0451 142.385 43.4231C142.157 43.7951 141.842 44.0891 141.44 44.3051C141.038 44.5211 140.582 44.6291 140.072 44.6291ZM140.072 43.4771C140.306 43.4771 140.516 43.4231 140.702 43.3151C140.888 43.2071 141.035 43.0541 141.143 42.8561C141.251 42.6521 141.305 42.4121 141.305 42.1361C141.305 41.8541 141.251 41.6141 141.143 41.4161C141.035 41.2181 140.888 41.0651 140.702 40.9571C140.516 40.8491 140.306 40.7951 140.072 40.7951C139.838 40.7951 139.628 40.8491 139.442 40.9571C139.256 41.0651 139.106 41.2181 138.992 41.4161C138.884 41.6141 138.83 41.8541 138.83 42.1361C138.83 42.4121 138.884 42.6521 138.992 42.8561C139.106 43.0541 139.256 43.2071 139.442 43.3151C139.628 43.4231 139.838 43.4771 140.072 43.4771ZM143.666 44.5571V39.7151H145.007V41.0831L144.818 40.6871C144.962 40.3451 145.193 40.0871 145.511 39.9131C145.829 39.7331 146.216 39.6431 146.672 39.6431V40.9391C146.612 40.9331 146.558 40.9301 146.51 40.9301C146.462 40.9241 146.411 40.9211 146.357 40.9211C145.973 40.9211 145.661 41.0321 145.421 41.2541C145.187 41.4701 145.07 41.8091 145.07 42.2711V44.5571H143.666ZM150.16 44.5571V43.6121L150.07 43.4051V41.7131C150.07 41.4131 149.977 41.1791 149.791 41.0111C149.611 40.8431 149.332 40.7591 148.954 40.7591C148.696 40.7591 148.441 40.8011 148.189 40.8851C147.943 40.9631 147.733 41.0711 147.559 41.2091L147.055 40.2281C147.319 40.0421 147.637 39.8981 148.009 39.7961C148.381 39.6941 148.759 39.6431 149.143 39.6431C149.881 39.6431 150.454 39.8171 150.862 40.1651C151.27 40.5131 151.474 41.0561 151.474 41.7941V44.5571H150.16ZM148.684 44.6291C148.306 44.6291 147.982 44.5661 147.712 44.4401C147.442 44.3081 147.235 44.1311 147.091 43.9091C146.947 43.6871 146.875 43.4381 146.875 43.1621C146.875 42.8741 146.944 42.6221 147.082 42.4061C147.226 42.1901 147.451 42.0221 147.757 41.9021C148.063 41.7761 148.462 41.7131 148.954 41.7131H150.241V42.5321H149.107C148.777 42.5321 148.549 42.5861 148.423 42.6941C148.303 42.8021 148.243 42.9371 148.243 43.0991C148.243 43.2791 148.312 43.4231 148.45 43.5311C148.594 43.6331 148.789 43.6841 149.035 43.6841C149.269 43.6841 149.479 43.6301 149.665 43.5221C149.851 43.4081 149.986 43.2431 150.07 43.0271L150.286 43.6751C150.184 43.9871 149.998 44.2241 149.728 44.3861C149.458 44.5481 149.11 44.6291 148.684 44.6291ZM154.725 44.6291C154.155 44.6291 153.711 44.4851 153.393 44.1971C153.075 43.9031 152.916 43.4681 152.916 42.8921V38.6441H154.32V42.8741C154.32 43.0781 154.374 43.2371 154.482 43.3511C154.59 43.4591 154.737 43.5131 154.923 43.5131C155.145 43.5131 155.334 43.4531 155.49 43.3331L155.868 44.3231C155.724 44.4251 155.55 44.5031 155.346 44.5571C155.148 44.6051 154.941 44.6291 154.725 44.6291ZM152.169 40.9031V39.8231H155.526V40.9031H152.169ZM156.656 44.5571V39.7151H158.06V44.5571H156.656ZM157.358 39.0401C157.1 39.0401 156.89 38.9651 156.728 38.8151C156.566 38.6651 156.485 38.4791 156.485 38.2571C156.485 38.0351 156.566 37.8491 156.728 37.6991C156.89 37.5491 157.1 37.4741 157.358 37.4741C157.616 37.4741 157.826 37.5461 157.988 37.6901C158.15 37.8281 158.231 38.0081 158.231 38.2301C158.231 38.4641 158.15 38.6591 157.988 38.8151C157.832 38.9651 157.622 39.0401 157.358 39.0401ZM161.667 44.6291C161.151 44.6291 160.692 44.5211 160.29 44.3051C159.894 44.0891 159.579 43.7951 159.345 43.4231C159.117 43.0451 159.003 42.6161 159.003 42.1361C159.003 41.6501 159.117 41.2211 159.345 40.8491C159.579 40.4711 159.894 40.1771 160.29 39.9671C160.692 39.7511 161.151 39.6431 161.667 39.6431C162.177 39.6431 162.633 39.7511 163.035 39.9671C163.437 40.1771 163.752 40.4681 163.98 40.8401C164.208 41.2121 164.322 41.6441 164.322 42.1361C164.322 42.6161 164.208 43.0451 163.98 43.4231C163.752 43.7951 163.437 44.0891 163.035 44.3051C162.633 44.5211 162.177 44.6291 161.667 44.6291ZM161.667 43.4771C161.901 43.4771 162.111 43.4231 162.297 43.3151C162.483 43.2071 162.63 43.0541 162.738 42.8561C162.846 42.6521 162.9 42.4121 162.9 42.1361C162.9 41.8541 162.846 41.6141 162.738 41.4161C162.63 41.2181 162.483 41.0651 162.297 40.9571C162.111 40.8491 161.901 40.7951 161.667 40.7951C161.433 40.7951 161.223 40.8491 161.037 40.9571C160.851 41.0651 160.701 41.2181 160.587 41.4161C160.479 41.6141 160.425 41.8541 160.425 42.1361C160.425 42.4121 160.479 42.6521 160.587 42.8561C160.701 43.0541 160.851 43.2071 161.037 43.3151C161.223 43.4231 161.433 43.4771 161.667 43.4771ZM168.203 39.6431C168.587 39.6431 168.929 39.7211 169.229 39.8771C169.535 40.0271 169.775 40.2611 169.949 40.5791C170.123 40.8911 170.21 41.2931 170.21 41.7851V44.5571H168.806V42.0011C168.806 41.6111 168.719 41.3231 168.545 41.1371C168.377 40.9511 168.137 40.8581 167.825 40.8581C167.603 40.8581 167.402 40.9061 167.222 41.0021C167.048 41.0921 166.91 41.2331 166.808 41.4251C166.712 41.6171 166.664 41.8631 166.664 42.1631V44.5571H165.26V39.7151H166.601V41.0561L166.349 40.6511C166.523 40.3271 166.772 40.0781 167.096 39.9041C167.42 39.7301 167.789 39.6431 168.203 39.6431ZM173.112 44.6291C172.698 44.6291 172.299 44.5811 171.915 44.4851C171.537 44.3831 171.237 44.2571 171.015 44.1071L171.483 43.0991C171.705 43.2371 171.966 43.3511 172.266 43.4411C172.572 43.5251 172.872 43.5671 173.166 43.5671C173.49 43.5671 173.718 43.5281 173.85 43.4501C173.988 43.3721 174.057 43.2641 174.057 43.1261C174.057 43.0121 174.003 42.9281 173.895 42.8741C173.793 42.8141 173.655 42.7691 173.481 42.7391C173.307 42.7091 173.115 42.6791 172.905 42.6491C172.701 42.6191 172.494 42.5801 172.284 42.5321C172.074 42.4781 171.882 42.4001 171.708 42.2981C171.534 42.1961 171.393 42.0581 171.285 41.8841C171.183 41.7101 171.132 41.4851 171.132 41.2091C171.132 40.9031 171.219 40.6331 171.393 40.3991C171.573 40.1651 171.831 39.9821 172.167 39.8501C172.503 39.7121 172.905 39.6431 173.373 39.6431C173.703 39.6431 174.039 39.6791 174.381 39.7511C174.723 39.8231 175.008 39.9281 175.236 40.0661L174.768 41.0651C174.534 40.9271 174.297 40.8341 174.057 40.7861C173.823 40.7321 173.595 40.7051 173.373 40.7051C173.061 40.7051 172.833 40.7471 172.689 40.8311C172.545 40.9151 172.473 41.0231 172.473 41.1551C172.473 41.2751 172.524 41.3651 172.626 41.4251C172.734 41.4851 172.875 41.5331 173.049 41.5691C173.223 41.6051 173.412 41.6381 173.616 41.6681C173.826 41.6921 174.036 41.7311 174.246 41.7851C174.456 41.8391 174.645 41.9171 174.813 42.0191C174.987 42.1151 175.128 42.2501 175.236 42.4241C175.344 42.5921 175.398 42.8141 175.398 43.0901C175.398 43.3901 175.308 43.6571 175.128 43.8911C174.948 44.1191 174.687 44.2991 174.345 44.4311C174.009 44.5631 173.598 44.6291 173.112 44.6291Z" fill="#C7F0FD"/>
</g>
<path d="M53.88 44.8409V0.00439453H31.212H19.2678H6.71322L29.6427 44.4047H18.2216H9.5031V27.2203L0 8.37853V54.0001H23.0167H34.5251H46.5565L24.1501 9.59976H36.0072H44.3769V25.9991L53.88 44.8409Z" fill="#C7F0FD"/>
<path d="M13.339 31.3203V40.3051H23.0164L18.2213 31.3203H13.339Z" fill="#C7F0FD"/>
<path d="M40.1045 21.6374V12.6526H30.3399L35.2222 21.6374H40.1045Z" fill="#C7F0FD"/>
</svg>
