<svg width="216" height="54" viewBox="0 0 216 54" fill="none" xmlns="http://www.w3.org/2000/svg">
<g opacity="0.7">
<path d="M96.3964 25.2375C95.4004 25.2375 94.4824 25.0815 93.6424 24.7695C92.8144 24.4455 92.0884 23.9895 91.4644 23.4015C90.8524 22.8135 90.3724 22.1235 90.0244 21.3315C89.6884 20.5395 89.5204 19.6695 89.5204 18.7215C89.5204 17.7735 89.6884 16.9035 90.0244 16.1115C90.3724 15.3195 90.8584 14.6295 91.4824 14.0415C92.1064 13.4535 92.8384 13.0035 93.6784 12.6915C94.5184 12.3675 95.4424 12.2055 96.4504 12.2055C97.5664 12.2055 98.5684 12.3915 99.4564 12.7635C100.356 13.1355 101.112 13.6755 101.724 14.3835L99.8524 16.1115C99.3964 15.6315 98.8984 15.2775 98.3584 15.0495C97.8184 14.8095 97.2304 14.6895 96.5944 14.6895C95.9824 14.6895 95.4244 14.7855 94.9204 14.9775C94.4164 15.1695 93.9784 15.4455 93.6064 15.8055C93.2464 16.1655 92.9644 16.5915 92.7604 17.0835C92.5684 17.5755 92.4724 18.1215 92.4724 18.7215C92.4724 19.3095 92.5684 19.8495 92.7604 20.3415C92.9644 20.8335 93.2464 21.2655 93.6064 21.6375C93.9784 21.9975 94.4104 22.2735 94.9024 22.4655C95.4064 22.6575 95.9584 22.7535 96.5584 22.7535C97.1344 22.7535 97.6924 22.6635 98.2324 22.4835C98.7844 22.2915 99.3184 21.9735 99.8344 21.5295L101.49 23.6355C100.806 24.1515 100.008 24.5475 99.0964 24.8235C98.1964 25.0995 97.2964 25.2375 96.3964 25.2375ZM98.8264 23.2575V18.5235H101.49V23.6355L98.8264 23.2575ZM104.001 25.0215V15.3375H106.683V18.0735L106.305 17.2815C106.593 16.5975 107.055 16.0815 107.691 15.7335C108.327 15.3735 109.101 15.1935 110.013 15.1935V17.7855C109.893 17.7735 109.785 17.7675 109.689 17.7675C109.593 17.7555 109.491 17.7495 109.383 17.7495C108.615 17.7495 107.991 17.9715 107.511 18.4155C107.043 18.8475 106.809 19.5255 106.809 20.4495V25.0215H104.001ZM116.418 25.1655C115.314 25.1655 114.342 24.9495 113.502 24.5175C112.674 24.0855 112.032 23.4975 111.576 22.7535C111.12 21.9975 110.892 21.1395 110.892 20.1795C110.892 19.2075 111.114 18.3495 111.558 17.6055C112.014 16.8495 112.632 16.2615 113.412 15.8415C114.192 15.4095 115.074 15.1935 116.058 15.1935C117.006 15.1935 117.858 15.3975 118.614 15.8055C119.382 16.2015 119.988 16.7775 120.432 17.5335C120.876 18.2775 121.098 19.1715 121.098 20.2155C121.098 20.3235 121.092 20.4495 121.08 20.5935C121.068 20.7255 121.056 20.8515 121.044 20.9715H113.178V19.3335H119.568L118.488 19.8195C118.488 19.3155 118.386 18.8775 118.182 18.5055C117.978 18.1335 117.696 17.8455 117.336 17.6415C116.976 17.4255 116.556 17.3175 116.076 17.3175C115.596 17.3175 115.17 17.4255 114.798 17.6415C114.438 17.8455 114.156 18.1395 113.952 18.5235C113.748 18.8955 113.646 19.3395 113.646 19.8555V20.2875C113.646 20.8155 113.76 21.2835 113.988 21.6915C114.228 22.0875 114.558 22.3935 114.978 22.6095C115.41 22.8135 115.914 22.9155 116.49 22.9155C117.006 22.9155 117.456 22.8375 117.84 22.6815C118.236 22.5255 118.596 22.2915 118.92 21.9795L120.414 23.5995C119.97 24.1035 119.412 24.4935 118.74 24.7695C118.068 25.0335 117.294 25.1655 116.418 25.1655ZM127.774 25.1655C126.67 25.1655 125.698 24.9495 124.858 24.5175C124.03 24.0855 123.388 23.4975 122.932 22.7535C122.476 21.9975 122.248 21.1395 122.248 20.1795C122.248 19.2075 122.47 18.3495 122.914 17.6055C123.37 16.8495 123.988 16.2615 124.768 15.8415C125.548 15.4095 126.43 15.1935 127.414 15.1935C128.362 15.1935 129.214 15.3975 129.97 15.8055C130.738 16.2015 131.344 16.7775 131.788 17.5335C132.232 18.2775 132.454 19.1715 132.454 20.2155C132.454 20.3235 132.448 20.4495 132.436 20.5935C132.424 20.7255 132.412 20.8515 132.4 20.9715H124.534V19.3335H130.924L129.844 19.8195C129.844 19.3155 129.742 18.8775 129.538 18.5055C129.334 18.1335 129.052 17.8455 128.692 17.6415C128.332 17.4255 127.912 17.3175 127.432 17.3175C126.952 17.3175 126.526 17.4255 126.154 17.6415C125.794 17.8455 125.512 18.1395 125.308 18.5235C125.104 18.8955 125.002 19.3395 125.002 19.8555V20.2875C125.002 20.8155 125.116 21.2835 125.344 21.6915C125.584 22.0875 125.914 22.3935 126.334 22.6095C126.766 22.8135 127.27 22.9155 127.846 22.9155C128.362 22.9155 128.812 22.8375 129.196 22.6815C129.592 22.5255 129.952 22.2915 130.276 21.9795L131.77 23.5995C131.326 24.1035 130.768 24.4935 130.096 24.7695C129.424 25.0335 128.65 25.1655 127.774 25.1655ZM140.209 15.1935C140.977 15.1935 141.661 15.3495 142.261 15.6615C142.873 15.9615 143.353 16.4295 143.701 17.0655C144.049 17.6895 144.223 18.4935 144.223 19.4775V25.0215H141.415V19.9095C141.415 19.1295 141.241 18.5535 140.893 18.1815C140.557 17.8095 140.077 17.6235 139.453 17.6235C139.009 17.6235 138.607 17.7195 138.247 17.9115C137.899 18.0915 137.623 18.3735 137.419 18.7575C137.227 19.1415 137.131 19.6335 137.131 20.2335V25.0215H134.323V15.3375H137.005V18.0195L136.501 17.2095C136.849 16.5615 137.347 16.0635 137.995 15.7155C138.643 15.3675 139.381 15.1935 140.209 15.1935ZM146.967 25.0215V12.4215H149.883V22.6455H156.201V25.0215H146.967ZM162.385 25.1655C161.281 25.1655 160.309 24.9495 159.469 24.5175C158.641 24.0855 157.999 23.4975 157.543 22.7535C157.087 21.9975 156.859 21.1395 156.859 20.1795C156.859 19.2075 157.081 18.3495 157.525 17.6055C157.981 16.8495 158.599 16.2615 159.379 15.8415C160.159 15.4095 161.041 15.1935 162.025 15.1935C162.973 15.1935 163.825 15.3975 164.581 15.8055C165.349 16.2015 165.955 16.7775 166.399 17.5335C166.843 18.2775 167.065 19.1715 167.065 20.2155C167.065 20.3235 167.059 20.4495 167.047 20.5935C167.035 20.7255 167.023 20.8515 167.011 20.9715H159.145V19.3335H165.535L164.455 19.8195C164.455 19.3155 164.353 18.8775 164.149 18.5055C163.945 18.1335 163.663 17.8455 163.303 17.6415C162.943 17.4255 162.523 17.3175 162.043 17.3175C161.563 17.3175 161.137 17.4255 160.765 17.6415C160.405 17.8455 160.123 18.1395 159.919 18.5235C159.715 18.8955 159.613 19.3395 159.613 19.8555V20.2875C159.613 20.8155 159.727 21.2835 159.955 21.6915C160.195 22.0875 160.525 22.3935 160.945 22.6095C161.377 22.8135 161.881 22.9155 162.457 22.9155C162.973 22.9155 163.423 22.8375 163.807 22.6815C164.203 22.5255 164.563 22.2915 164.887 21.9795L166.381 23.5995C165.937 24.1035 165.379 24.4935 164.707 24.7695C164.035 25.0335 163.261 25.1655 162.385 25.1655ZM174.611 25.0215V23.1315L174.431 22.7175V19.3335C174.431 18.7335 174.245 18.2655 173.873 17.9295C173.513 17.5935 172.955 17.4255 172.199 17.4255C171.683 17.4255 171.173 17.5095 170.669 17.6775C170.177 17.8335 169.757 18.0495 169.409 18.3255L168.401 16.3635C168.929 15.9915 169.565 15.7035 170.309 15.4995C171.053 15.2955 171.809 15.1935 172.577 15.1935C174.053 15.1935 175.199 15.5415 176.015 16.2375C176.831 16.9335 177.239 18.0195 177.239 19.4955V25.0215H174.611ZM171.659 25.1655C170.903 25.1655 170.255 25.0395 169.715 24.7875C169.175 24.5235 168.761 24.1695 168.473 23.7255C168.185 23.2815 168.041 22.7835 168.041 22.2315C168.041 21.6555 168.179 21.1515 168.455 20.7195C168.743 20.2875 169.193 19.9515 169.805 19.7115C170.417 19.4595 171.215 19.3335 172.199 19.3335H174.773V20.9715H172.505C171.845 20.9715 171.389 21.0795 171.137 21.2955C170.897 21.5115 170.777 21.7815 170.777 22.1055C170.777 22.4655 170.915 22.7535 171.191 22.9695C171.479 23.1735 171.869 23.2755 172.361 23.2755C172.829 23.2755 173.249 23.1675 173.621 22.9515C173.993 22.7235 174.263 22.3935 174.431 21.9615L174.863 23.2575C174.659 23.8815 174.287 24.3555 173.747 24.6795C173.207 25.0035 172.511 25.1655 171.659 25.1655ZM180.122 25.0215V15.1215C180.122 14.0295 180.446 13.1595 181.094 12.5115C181.742 11.8515 182.666 11.5215 183.866 11.5215C184.274 11.5215 184.664 11.5635 185.036 11.6475C185.42 11.7315 185.744 11.8635 186.008 12.0435L185.27 14.0775C185.114 13.9695 184.94 13.8855 184.748 13.8255C184.556 13.7655 184.352 13.7355 184.136 13.7355C183.728 13.7355 183.41 13.8555 183.182 14.0955C182.966 14.3235 182.858 14.6715 182.858 15.1395V16.0395L182.93 17.2455V25.0215H180.122ZM178.628 17.7135V15.5535H185.342V17.7135H178.628Z" fill="#C7F0FD"/>
<path d="M88.747 39.5464V33.2464H91.474C92.038 33.2464 92.524 33.3394 92.932 33.5254C93.34 33.7054 93.655 33.9664 93.877 34.3084C94.099 34.6504 94.21 35.0584 94.21 35.5324C94.21 36.0004 94.099 36.4054 93.877 36.7474C93.655 37.0894 93.34 37.3534 92.932 37.5394C92.524 37.7194 92.038 37.8094 91.474 37.8094H89.557L90.205 37.1524V39.5464H88.747ZM90.205 37.3144L89.557 36.6214H91.393C91.843 36.6214 92.179 36.5254 92.401 36.3334C92.623 36.1414 92.734 35.8744 92.734 35.5324C92.734 35.1844 92.623 34.9144 92.401 34.7224C92.179 34.5304 91.843 34.4344 91.393 34.4344H89.557L90.205 33.7414V37.3144ZM98.078 39.5464V38.6014L97.988 38.3944V36.7024C97.988 36.4024 97.895 36.1684 97.709 36.0004C97.529 35.8324 97.25 35.7484 96.872 35.7484C96.614 35.7484 96.359 35.7904 96.107 35.8744C95.861 35.9524 95.651 36.0604 95.477 36.1984L94.973 35.2174C95.237 35.0314 95.555 34.8874 95.927 34.7854C96.299 34.6834 96.677 34.6324 97.061 34.6324C97.799 34.6324 98.372 34.8064 98.78 35.1544C99.188 35.5024 99.392 36.0454 99.392 36.7834V39.5464H98.078ZM96.602 39.6184C96.224 39.6184 95.9 39.5554 95.63 39.4294C95.36 39.2974 95.153 39.1204 95.009 38.8984C94.865 38.6764 94.793 38.4274 94.793 38.1514C94.793 37.8634 94.862 37.6114 95 37.3954C95.144 37.1794 95.369 37.0114 95.675 36.8914C95.981 36.7654 96.38 36.7024 96.872 36.7024H98.159V37.5214H97.025C96.695 37.5214 96.467 37.5754 96.341 37.6834C96.221 37.7914 96.161 37.9264 96.161 38.0884C96.161 38.2684 96.23 38.4124 96.368 38.5204C96.512 38.6224 96.707 38.6734 96.953 38.6734C97.187 38.6734 97.397 38.6194 97.583 38.5114C97.769 38.3974 97.904 38.2324 97.988 38.0164L98.204 38.6644C98.102 38.9764 97.916 39.2134 97.646 39.3754C97.376 39.5374 97.028 39.6184 96.602 39.6184ZM102.643 39.6184C102.073 39.6184 101.629 39.4744 101.311 39.1864C100.993 38.8924 100.834 38.4574 100.834 37.8814V33.6334H102.238V37.8634C102.238 38.0674 102.292 38.2264 102.4 38.3404C102.508 38.4484 102.655 38.5024 102.841 38.5024C103.063 38.5024 103.252 38.4424 103.408 38.3224L103.786 39.3124C103.642 39.4144 103.468 39.4924 103.264 39.5464C103.066 39.5944 102.859 39.6184 102.643 39.6184ZM100.087 35.8924V34.8124H103.444V35.8924H100.087ZM104.574 39.5464V34.7044H105.978V39.5464H104.574ZM105.276 34.0294C105.018 34.0294 104.808 33.9544 104.646 33.8044C104.484 33.6544 104.403 33.4684 104.403 33.2464C104.403 33.0244 104.484 32.8384 104.646 32.6884C104.808 32.5384 105.018 32.4634 105.276 32.4634C105.534 32.4634 105.744 32.5354 105.906 32.6794C106.068 32.8174 106.149 32.9974 106.149 33.2194C106.149 33.4534 106.068 33.6484 105.906 33.8044C105.75 33.9544 105.54 34.0294 105.276 34.0294ZM109.684 39.6184C109.132 39.6184 108.646 39.5104 108.226 39.2944C107.812 39.0784 107.491 38.7844 107.263 38.4124C107.035 38.0344 106.921 37.6054 106.921 37.1254C106.921 36.6394 107.032 36.2104 107.254 35.8384C107.482 35.4604 107.791 35.1664 108.181 34.9564C108.571 34.7404 109.012 34.6324 109.504 34.6324C109.978 34.6324 110.404 34.7344 110.782 34.9384C111.166 35.1364 111.469 35.4244 111.691 35.8024C111.913 36.1744 112.024 36.6214 112.024 37.1434C112.024 37.1974 112.021 37.2604 112.015 37.3324C112.009 37.3984 112.003 37.4614 111.997 37.5214H108.064V36.7024H111.259L110.719 36.9454C110.719 36.6934 110.668 36.4744 110.566 36.2884C110.464 36.1024 110.323 35.9584 110.143 35.8564C109.963 35.7484 109.753 35.6944 109.513 35.6944C109.273 35.6944 109.06 35.7484 108.874 35.8564C108.694 35.9584 108.553 36.1054 108.451 36.2974C108.349 36.4834 108.298 36.7054 108.298 36.9634V37.1794C108.298 37.4434 108.355 37.6774 108.469 37.8814C108.589 38.0794 108.754 38.2324 108.964 38.3404C109.18 38.4424 109.432 38.4934 109.72 38.4934C109.978 38.4934 110.203 38.4544 110.395 38.3764C110.593 38.2984 110.773 38.1814 110.935 38.0254L111.682 38.8354C111.46 39.0874 111.181 39.2824 110.845 39.4204C110.509 39.5524 110.122 39.6184 109.684 39.6184ZM115.902 34.6324C116.286 34.6324 116.628 34.7104 116.928 34.8664C117.234 35.0164 117.474 35.2504 117.648 35.5684C117.822 35.8804 117.909 36.2824 117.909 36.7744V39.5464H116.505V36.9904C116.505 36.6004 116.418 36.3124 116.244 36.1264C116.076 35.9404 115.836 35.8474 115.524 35.8474C115.302 35.8474 115.101 35.8954 114.921 35.9914C114.747 36.0814 114.609 36.2224 114.507 36.4144C114.411 36.6064 114.363 36.8524 114.363 37.1524V39.5464H112.959V34.7044H114.3V36.0454L114.048 35.6404C114.222 35.3164 114.471 35.0674 114.795 34.8934C115.119 34.7194 115.488 34.6324 115.902 34.6324ZM121.161 39.6184C120.591 39.6184 120.147 39.4744 119.829 39.1864C119.511 38.8924 119.352 38.4574 119.352 37.8814V33.6334H120.756V37.8634C120.756 38.0674 120.81 38.2264 120.918 38.3404C121.026 38.4484 121.173 38.5024 121.359 38.5024C121.581 38.5024 121.77 38.4424 121.926 38.3224L122.304 39.3124C122.16 39.4144 121.986 39.4924 121.782 39.5464C121.584 39.5944 121.377 39.6184 121.161 39.6184ZM118.605 35.8924V34.8124H121.962V35.8924H118.605ZM128.503 39.6184C128.095 39.6184 127.738 39.5284 127.432 39.3484C127.126 39.1684 126.886 38.8954 126.712 38.5294C126.544 38.1574 126.46 37.6894 126.46 37.1254C126.46 36.5554 126.541 36.0874 126.703 35.7214C126.865 35.3554 127.099 35.0824 127.405 34.9024C127.711 34.7224 128.077 34.6324 128.503 34.6324C128.959 34.6324 129.367 34.7374 129.727 34.9474C130.093 35.1514 130.381 35.4394 130.591 35.8114C130.807 36.1834 130.915 36.6214 130.915 37.1254C130.915 37.6354 130.807 38.0764 130.591 38.4484C130.381 38.8204 130.093 39.1084 129.727 39.3124C129.367 39.5164 128.959 39.6184 128.503 39.6184ZM125.641 41.2924V34.7044H126.982V35.6944L126.955 37.1344L127.045 38.5654V41.2924H125.641ZM128.26 38.4664C128.494 38.4664 128.701 38.4124 128.881 38.3044C129.067 38.1964 129.214 38.0434 129.322 37.8454C129.436 37.6414 129.493 37.4014 129.493 37.1254C129.493 36.8434 129.436 36.6034 129.322 36.4054C129.214 36.2074 129.067 36.0544 128.881 35.9464C128.701 35.8384 128.494 35.7844 128.26 35.7844C128.026 35.7844 127.816 35.8384 127.63 35.9464C127.444 36.0544 127.297 36.2074 127.189 36.4054C127.081 36.6034 127.027 36.8434 127.027 37.1254C127.027 37.4014 127.081 37.6414 127.189 37.8454C127.297 38.0434 127.444 38.1964 127.63 38.3044C127.816 38.4124 128.026 38.4664 128.26 38.4664ZM131.855 39.5464V34.7044H133.196V36.0724L133.007 35.6764C133.151 35.3344 133.382 35.0764 133.7 34.9024C134.018 34.7224 134.405 34.6324 134.861 34.6324V35.9284C134.801 35.9224 134.747 35.9194 134.699 35.9194C134.651 35.9134 134.6 35.9104 134.546 35.9104C134.162 35.9104 133.85 36.0214 133.61 36.2434C133.376 36.4594 133.259 36.7984 133.259 37.2604V39.5464H131.855ZM138.064 39.6184C137.512 39.6184 137.026 39.5104 136.606 39.2944C136.192 39.0784 135.871 38.7844 135.643 38.4124C135.415 38.0344 135.301 37.6054 135.301 37.1254C135.301 36.6394 135.412 36.2104 135.634 35.8384C135.862 35.4604 136.171 35.1664 136.561 34.9564C136.951 34.7404 137.392 34.6324 137.884 34.6324C138.358 34.6324 138.784 34.7344 139.162 34.9384C139.546 35.1364 139.849 35.4244 140.071 35.8024C140.293 36.1744 140.404 36.6214 140.404 37.1434C140.404 37.1974 140.401 37.2604 140.395 37.3324C140.389 37.3984 140.383 37.4614 140.377 37.5214H136.444V36.7024H139.639L139.099 36.9454C139.099 36.6934 139.048 36.4744 138.946 36.2884C138.844 36.1024 138.703 35.9584 138.523 35.8564C138.343 35.7484 138.133 35.6944 137.893 35.6944C137.653 35.6944 137.44 35.7484 137.254 35.8564C137.074 35.9584 136.933 36.1054 136.831 36.2974C136.729 36.4834 136.678 36.7054 136.678 36.9634V37.1794C136.678 37.4434 136.735 37.6774 136.849 37.8814C136.969 38.0794 137.134 38.2324 137.344 38.3404C137.56 38.4424 137.812 38.4934 138.1 38.4934C138.358 38.4934 138.583 38.4544 138.775 38.3764C138.973 38.2984 139.153 38.1814 139.315 38.0254L140.062 38.8354C139.84 39.0874 139.561 39.2824 139.225 39.4204C138.889 39.5524 138.502 39.6184 138.064 39.6184ZM142.967 39.6184C142.553 39.6184 142.154 39.5704 141.77 39.4744C141.392 39.3724 141.092 39.2464 140.87 39.0964L141.338 38.0884C141.56 38.2264 141.821 38.3404 142.121 38.4304C142.427 38.5144 142.727 38.5564 143.021 38.5564C143.345 38.5564 143.573 38.5174 143.705 38.4394C143.843 38.3614 143.912 38.2534 143.912 38.1154C143.912 38.0014 143.858 37.9174 143.75 37.8634C143.648 37.8034 143.51 37.7584 143.336 37.7284C143.162 37.6984 142.97 37.6684 142.76 37.6384C142.556 37.6084 142.349 37.5694 142.139 37.5214C141.929 37.4674 141.737 37.3894 141.563 37.2874C141.389 37.1854 141.248 37.0474 141.14 36.8734C141.038 36.6994 140.987 36.4744 140.987 36.1984C140.987 35.8924 141.074 35.6224 141.248 35.3884C141.428 35.1544 141.686 34.9714 142.022 34.8394C142.358 34.7014 142.76 34.6324 143.228 34.6324C143.558 34.6324 143.894 34.6684 144.236 34.7404C144.578 34.8124 144.863 34.9174 145.091 35.0554L144.623 36.0544C144.389 35.9164 144.152 35.8234 143.912 35.7754C143.678 35.7214 143.45 35.6944 143.228 35.6944C142.916 35.6944 142.688 35.7364 142.544 35.8204C142.4 35.9044 142.328 36.0124 142.328 36.1444C142.328 36.2644 142.379 36.3544 142.481 36.4144C142.589 36.4744 142.73 36.5224 142.904 36.5584C143.078 36.5944 143.267 36.6274 143.471 36.6574C143.681 36.6814 143.891 36.7204 144.101 36.7744C144.311 36.8284 144.5 36.9064 144.668 37.0084C144.842 37.1044 144.983 37.2394 145.091 37.4134C145.199 37.5814 145.253 37.8034 145.253 38.0794C145.253 38.3794 145.163 38.6464 144.983 38.8804C144.803 39.1084 144.542 39.2884 144.2 39.4204C143.864 39.5524 143.453 39.6184 142.967 39.6184ZM148.46 39.6184C147.938 39.6184 147.473 39.5134 147.065 39.3034C146.657 39.0874 146.336 38.7904 146.102 38.4124C145.874 38.0344 145.76 37.6054 145.76 37.1254C145.76 36.6394 145.874 36.2104 146.102 35.8384C146.336 35.4604 146.657 35.1664 147.065 34.9564C147.473 34.7404 147.938 34.6324 148.46 34.6324C148.97 34.6324 149.414 34.7404 149.792 34.9564C150.17 35.1664 150.449 35.4694 150.629 35.8654L149.54 36.4504C149.414 36.2224 149.255 36.0544 149.063 35.9464C148.877 35.8384 148.673 35.7844 148.451 35.7844C148.211 35.7844 147.995 35.8384 147.803 35.9464C147.611 36.0544 147.458 36.2074 147.344 36.4054C147.236 36.6034 147.182 36.8434 147.182 37.1254C147.182 37.4074 147.236 37.6474 147.344 37.8454C147.458 38.0434 147.611 38.1964 147.803 38.3044C147.995 38.4124 148.211 38.4664 148.451 38.4664C148.673 38.4664 148.877 38.4154 149.063 38.3134C149.255 38.2054 149.414 38.0344 149.54 37.8004L150.629 38.3944C150.449 38.7844 150.17 39.0874 149.792 39.3034C149.414 39.5134 148.97 39.6184 148.46 39.6184ZM151.437 39.5464V34.7044H152.778V36.0724L152.589 35.6764C152.733 35.3344 152.964 35.0764 153.282 34.9024C153.6 34.7224 153.987 34.6324 154.443 34.6324V35.9284C154.383 35.9224 154.329 35.9194 154.281 35.9194C154.233 35.9134 154.182 35.9104 154.128 35.9104C153.744 35.9104 153.432 36.0214 153.192 36.2434C152.958 36.4594 152.841 36.7984 152.841 37.2604V39.5464H151.437ZM155.287 39.5464V34.7044H156.691V39.5464H155.287ZM155.989 34.0294C155.731 34.0294 155.521 33.9544 155.359 33.8044C155.197 33.6544 155.116 33.4684 155.116 33.2464C155.116 33.0244 155.197 32.8384 155.359 32.6884C155.521 32.5384 155.731 32.4634 155.989 32.4634C156.247 32.4634 156.457 32.5354 156.619 32.6794C156.781 32.8174 156.862 32.9974 156.862 33.2194C156.862 33.4534 156.781 33.6484 156.619 33.8044C156.463 33.9544 156.253 34.0294 155.989 34.0294ZM160.856 39.6184C160.448 39.6184 160.091 39.5284 159.785 39.3484C159.479 39.1684 159.239 38.8954 159.065 38.5294C158.897 38.1574 158.813 37.6894 158.813 37.1254C158.813 36.5554 158.894 36.0874 159.056 35.7214C159.218 35.3554 159.452 35.0824 159.758 34.9024C160.064 34.7224 160.43 34.6324 160.856 34.6324C161.312 34.6324 161.72 34.7374 162.08 34.9474C162.446 35.1514 162.734 35.4394 162.944 35.8114C163.16 36.1834 163.268 36.6214 163.268 37.1254C163.268 37.6354 163.16 38.0764 162.944 38.4484C162.734 38.8204 162.446 39.1084 162.08 39.3124C161.72 39.5164 161.312 39.6184 160.856 39.6184ZM157.994 41.2924V34.7044H159.335V35.6944L159.308 37.1344L159.398 38.5654V41.2924H157.994ZM160.613 38.4664C160.847 38.4664 161.054 38.4124 161.234 38.3044C161.42 38.1964 161.567 38.0434 161.675 37.8454C161.789 37.6414 161.846 37.4014 161.846 37.1254C161.846 36.8434 161.789 36.6034 161.675 36.4054C161.567 36.2074 161.42 36.0544 161.234 35.9464C161.054 35.8384 160.847 35.7844 160.613 35.7844C160.379 35.7844 160.169 35.8384 159.983 35.9464C159.797 36.0544 159.65 36.2074 159.542 36.4054C159.434 36.6034 159.38 36.8434 159.38 37.1254C159.38 37.4014 159.434 37.6414 159.542 37.8454C159.65 38.0434 159.797 38.1964 159.983 38.3044C160.169 38.4124 160.379 38.4664 160.613 38.4664ZM166.188 39.6184C165.618 39.6184 165.174 39.4744 164.856 39.1864C164.538 38.8924 164.379 38.4574 164.379 37.8814V33.6334H165.783V37.8634C165.783 38.0674 165.837 38.2264 165.945 38.3404C166.053 38.4484 166.2 38.5024 166.386 38.5024C166.608 38.5024 166.797 38.4424 166.953 38.3224L167.331 39.3124C167.187 39.4144 167.013 39.4924 166.809 39.5464C166.611 39.5944 166.404 39.6184 166.188 39.6184ZM163.632 35.8924V34.8124H166.989V35.8924H163.632ZM168.119 39.5464V34.7044H169.523V39.5464H168.119ZM168.821 34.0294C168.563 34.0294 168.353 33.9544 168.191 33.8044C168.029 33.6544 167.948 33.4684 167.948 33.2464C167.948 33.0244 168.029 32.8384 168.191 32.6884C168.353 32.5384 168.563 32.4634 168.821 32.4634C169.079 32.4634 169.289 32.5354 169.451 32.6794C169.613 32.8174 169.694 32.9974 169.694 33.2194C169.694 33.4534 169.613 33.6484 169.451 33.8044C169.295 33.9544 169.085 34.0294 168.821 34.0294ZM173.13 39.6184C172.614 39.6184 172.155 39.5104 171.753 39.2944C171.357 39.0784 171.042 38.7844 170.808 38.4124C170.58 38.0344 170.466 37.6054 170.466 37.1254C170.466 36.6394 170.58 36.2104 170.808 35.8384C171.042 35.4604 171.357 35.1664 171.753 34.9564C172.155 34.7404 172.614 34.6324 173.13 34.6324C173.64 34.6324 174.096 34.7404 174.498 34.9564C174.9 35.1664 175.215 35.4574 175.443 35.8294C175.671 36.2014 175.785 36.6334 175.785 37.1254C175.785 37.6054 175.671 38.0344 175.443 38.4124C175.215 38.7844 174.9 39.0784 174.498 39.2944C174.096 39.5104 173.64 39.6184 173.13 39.6184ZM173.13 38.4664C173.364 38.4664 173.574 38.4124 173.76 38.3044C173.946 38.1964 174.093 38.0434 174.201 37.8454C174.309 37.6414 174.363 37.4014 174.363 37.1254C174.363 36.8434 174.309 36.6034 174.201 36.4054C174.093 36.2074 173.946 36.0544 173.76 35.9464C173.574 35.8384 173.364 35.7844 173.13 35.7844C172.896 35.7844 172.686 35.8384 172.5 35.9464C172.314 36.0544 172.164 36.2074 172.05 36.4054C171.942 36.6034 171.888 36.8434 171.888 37.1254C171.888 37.4014 171.942 37.6414 172.05 37.8454C172.164 38.0434 172.314 38.1964 172.5 38.3044C172.686 38.4124 172.896 38.4664 173.13 38.4664ZM179.666 34.6324C180.05 34.6324 180.392 34.7104 180.692 34.8664C180.998 35.0164 181.238 35.2504 181.412 35.5684C181.586 35.8804 181.673 36.2824 181.673 36.7744V39.5464H180.269V36.9904C180.269 36.6004 180.182 36.3124 180.008 36.1264C179.84 35.9404 179.6 35.8474 179.288 35.8474C179.066 35.8474 178.865 35.8954 178.685 35.9914C178.511 36.0814 178.373 36.2224 178.271 36.4144C178.175 36.6064 178.127 36.8524 178.127 37.1524V39.5464H176.723V34.7044H178.064V36.0454L177.812 35.6404C177.986 35.3164 178.235 35.0674 178.559 34.8934C178.883 34.7194 179.252 34.6324 179.666 34.6324ZM184.575 39.6184C184.161 39.6184 183.762 39.5704 183.378 39.4744C183 39.3724 182.7 39.2464 182.478 39.0964L182.946 38.0884C183.168 38.2264 183.429 38.3404 183.729 38.4304C184.035 38.5144 184.335 38.5564 184.629 38.5564C184.953 38.5564 185.181 38.5174 185.313 38.4394C185.451 38.3614 185.52 38.2534 185.52 38.1154C185.52 38.0014 185.466 37.9174 185.358 37.8634C185.256 37.8034 185.118 37.7584 184.944 37.7284C184.77 37.6984 184.578 37.6684 184.368 37.6384C184.164 37.6084 183.957 37.5694 183.747 37.5214C183.537 37.4674 183.345 37.3894 183.171 37.2874C182.997 37.1854 182.856 37.0474 182.748 36.8734C182.646 36.6994 182.595 36.4744 182.595 36.1984C182.595 35.8924 182.682 35.6224 182.856 35.3884C183.036 35.1544 183.294 34.9714 183.63 34.8394C183.966 34.7014 184.368 34.6324 184.836 34.6324C185.166 34.6324 185.502 34.6684 185.844 34.7404C186.186 34.8124 186.471 34.9174 186.699 35.0554L186.231 36.0544C185.997 35.9164 185.76 35.8234 185.52 35.7754C185.286 35.7214 185.058 35.6944 184.836 35.6944C184.524 35.6944 184.296 35.7364 184.152 35.8204C184.008 35.9044 183.936 36.0124 183.936 36.1444C183.936 36.2644 183.987 36.3544 184.089 36.4144C184.197 36.4744 184.338 36.5224 184.512 36.5584C184.686 36.5944 184.875 36.6274 185.079 36.6574C185.289 36.6814 185.499 36.7204 185.709 36.7744C185.919 36.8284 186.108 36.9064 186.276 37.0084C186.45 37.1044 186.591 37.2394 186.699 37.4134C186.807 37.5814 186.861 37.8034 186.861 38.0794C186.861 38.3794 186.771 38.6464 186.591 38.8804C186.411 39.1084 186.15 39.2884 185.808 39.4204C185.472 39.5524 185.061 39.6184 184.575 39.6184Z" fill="#C7F0FD"/>
</g>
<path d="M66.9244 35.9178C66.0018 35.9178 65.2021 36.3573 64.71 37.048L59.7891 35.2272C60.5887 32.653 61.0808 29.8276 61.0808 26.9395C61.0808 17.2077 56.0369 8.7316 48.5325 3.95989L45.703 10.0501C51.0545 13.6917 54.5606 19.9075 54.5606 26.9395C54.5606 29.0114 54.2531 31.0205 53.6995 32.9041L48.6555 31.0833C49.0246 29.7648 49.2091 28.3835 49.2091 26.9395C49.2091 21.1004 45.8875 16.0775 41.1511 13.6289C40.9666 14.3195 40.7206 14.9474 40.536 15.638C40.2285 16.5798 39.9209 17.5844 39.6134 18.589C42.3814 20.2842 44.2882 23.4235 44.2882 26.9395C44.2882 27.7557 44.1652 28.5719 43.9807 29.3253L38.8752 27.4417C38.8752 27.2534 38.9367 27.065 38.9367 26.9395C38.9367 24.5536 37.0299 22.67 34.754 22.67C33.2777 22.67 31.9859 23.4862 31.1863 24.6792L26.0808 22.7956C27.6186 19.468 30.8787 17.2077 34.6924 17.2077C36.0457 17.2077 37.3374 17.5216 38.5061 18.0239C38.9367 17.1449 39.3673 16.2659 39.7979 15.3869C40.1054 14.759 40.413 14.0684 40.7206 13.4405C38.8752 12.6243 36.8453 12.122 34.754 12.122C28.7873 12.122 23.6204 15.8264 21.406 21.0376L16.362 19.2168C19.3761 11.8709 26.4499 6.65967 34.754 6.65967C36.5993 6.65967 38.3831 6.91081 40.1054 7.4131L42.1968 1.07175C39.8594 0.381107 37.3374 0.00439453 34.754 0.00439453C23.6204 0.00439453 14.0861 7.03639 10.2109 16.9565L5.78207 15.3241V15.2613C5.78207 13.6289 4.49033 12.3104 2.89103 12.3104C1.29174 12.3104 0 13.6289 0 15.2613C0 16.8937 1.29174 18.2122 2.89103 18.2122C3.81371 18.2122 4.61335 17.7727 5.10545 17.0821L9.53427 18.7145C8.73462 21.2887 8.24253 24.1141 8.24253 27.0022C8.24253 38.492 15.2548 48.2866 25.1582 52.1793L27.2496 45.838C19.9297 42.8242 14.7627 35.5411 14.7627 27.0022C14.7627 24.9303 15.0703 22.9212 15.6239 21.0376L20.6678 22.8584C20.2988 24.1769 20.1142 25.5582 20.1142 27.0022C20.1142 32.653 23.2513 37.613 27.8032 40.1245C28.4183 38.8687 29.0334 37.613 29.71 36.2945C29.833 36.0434 29.9561 35.7922 30.0791 35.6039C27.1265 33.9087 25.1582 30.7694 25.1582 27.065C25.1582 26.2488 25.2812 25.4326 25.4657 24.6792L30.5712 26.5627C30.5712 26.7511 30.5097 26.9395 30.5097 27.065C30.5097 29.4509 32.4165 31.3345 34.6924 31.3345C36.1687 31.3345 37.4605 30.5182 38.2601 29.3253L43.3656 31.2089C41.8278 34.5365 38.5677 36.7968 34.754 36.7968C34.4464 36.7968 34.2003 36.7968 33.8928 36.734C33.7698 37.1107 33.6467 37.4875 33.5237 37.8642C33.0931 39.1827 32.7241 40.4384 32.355 41.6941C33.1547 41.8197 33.8928 41.8824 34.754 41.8824C40.7206 41.8824 45.8875 38.1781 48.1019 32.9669L53.1459 34.7877C50.1318 42.1336 43.058 47.3448 34.754 47.3448C32.6626 47.3448 30.6942 47.0309 28.8489 46.403L26.0193 52.4932C28.7873 53.4978 31.7399 54.0001 34.754 54.0001C45.8875 54.0001 55.4218 46.9681 59.297 37.048L64.2179 38.8687V38.9315C64.2179 40.564 65.5097 41.8824 67.109 41.8824C68.7083 41.8824 70 40.564 70 38.9315C70 37.2991 68.4622 35.9178 66.9244 35.9178Z" fill="#C7F0FD"/>
</svg>
