<svg width="200" height="54" viewBox="0 0 200 54" fill="none" xmlns="http://www.w3.org/2000/svg">
<path d="M72.1979 28.6997L77.8139 16.0997H80.6939L86.3279 28.6997H83.2679L78.6599 17.5757H79.8119L75.1859 28.6997H72.1979ZM75.0059 25.9997L75.7799 23.7857H82.2599L83.0519 25.9997H75.0059ZM93.1611 28.8437C92.3451 28.8437 91.6311 28.6637 91.0191 28.3037C90.4071 27.9437 89.9271 27.3977 89.5791 26.6657C89.2431 25.9217 89.0751 24.9857 89.0751 23.8577C89.0751 22.7177 89.2371 21.7817 89.5611 21.0497C89.8851 20.3177 90.3531 19.7717 90.9651 19.4117C91.5771 19.0517 92.3091 18.8717 93.1611 18.8717C94.0731 18.8717 94.8891 19.0817 95.6091 19.5017C96.3411 19.9097 96.9171 20.4857 97.3371 21.2297C97.7691 21.9737 97.9851 22.8497 97.9851 23.8577C97.9851 24.8777 97.7691 25.7597 97.3371 26.5037C96.9171 27.2477 96.3411 27.8237 95.6091 28.2317C94.8891 28.6397 94.0731 28.8437 93.1611 28.8437ZM87.4371 32.1917V19.0157H90.1191V20.9957L90.0651 23.8757L90.2451 26.7377V32.1917H87.4371ZM92.6751 26.5397C93.1431 26.5397 93.5571 26.4317 93.9171 26.2157C94.2891 25.9997 94.5831 25.6937 94.7991 25.2977C95.0271 24.8897 95.1411 24.4097 95.1411 23.8577C95.1411 23.2937 95.0271 22.8137 94.7991 22.4177C94.5831 22.0217 94.2891 21.7157 93.9171 21.4997C93.5571 21.2837 93.1431 21.1757 92.6751 21.1757C92.2071 21.1757 91.7871 21.2837 91.4151 21.4997C91.0431 21.7157 90.7491 22.0217 90.5331 22.4177C90.3171 22.8137 90.2091 23.2937 90.2091 23.8577C90.2091 24.4097 90.3171 24.8897 90.5331 25.2977C90.7491 25.6937 91.0431 25.9997 91.4151 26.2157C91.7871 26.4317 92.2071 26.5397 92.6751 26.5397ZM104.671 28.8437C103.567 28.8437 102.595 28.6277 101.755 28.1957C100.927 27.7637 100.285 27.1757 99.8288 26.4317C99.3728 25.6757 99.1448 24.8177 99.1448 23.8577C99.1448 22.8857 99.3668 22.0277 99.8108 21.2837C100.267 20.5277 100.885 19.9397 101.665 19.5197C102.445 19.0877 103.327 18.8717 104.311 18.8717C105.259 18.8717 106.111 19.0757 106.867 19.4837C107.635 19.8797 108.241 20.4557 108.685 21.2117C109.129 21.9557 109.351 22.8497 109.351 23.8937C109.351 24.0017 109.345 24.1277 109.333 24.2717C109.321 24.4037 109.309 24.5297 109.297 24.6497H101.431V23.0117H107.821L106.741 23.4977C106.741 22.9937 106.639 22.5557 106.435 22.1837C106.231 21.8117 105.949 21.5237 105.589 21.3197C105.229 21.1037 104.809 20.9957 104.329 20.9957C103.849 20.9957 103.423 21.1037 103.051 21.3197C102.691 21.5237 102.409 21.8177 102.205 22.2017C102.001 22.5737 101.899 23.0177 101.899 23.5337V23.9657C101.899 24.4937 102.013 24.9617 102.241 25.3697C102.481 25.7657 102.811 26.0717 103.231 26.2877C103.663 26.4917 104.167 26.5937 104.743 26.5937C105.259 26.5937 105.709 26.5157 106.093 26.3597C106.489 26.2037 106.849 25.9697 107.173 25.6577L108.667 27.2777C108.223 27.7817 107.665 28.1717 106.993 28.4477C106.321 28.7117 105.547 28.8437 104.671 28.8437ZM109.733 28.6997L114.071 23.0117L114.017 24.5597L109.859 19.0157H113.009L115.637 22.6337L114.449 22.6697L117.167 19.0157H120.155L115.979 24.5057V22.9937L120.299 28.6997H117.113L114.359 24.8477L115.529 25.0097L112.793 28.6997H109.733ZM126.957 28.6997V16.0997H132.681C134.049 16.0997 135.255 16.3637 136.299 16.8917C137.343 17.4077 138.159 18.1337 138.747 19.0697C139.335 20.0057 139.629 21.1157 139.629 22.3997C139.629 23.6717 139.335 24.7817 138.747 25.7297C138.159 26.6657 137.343 27.3977 136.299 27.9257C135.255 28.4417 134.049 28.6997 132.681 28.6997H126.957ZM129.873 26.3057H132.537C133.377 26.3057 134.103 26.1497 134.715 25.8377C135.339 25.5137 135.819 25.0577 136.155 24.4697C136.503 23.8817 136.677 23.1917 136.677 22.3997C136.677 21.5957 136.503 20.9057 136.155 20.3297C135.819 19.7417 135.339 19.2917 134.715 18.9797C134.103 18.6557 133.377 18.4937 132.537 18.4937H129.873V26.3057ZM146.436 28.8437C145.332 28.8437 144.36 28.6277 143.52 28.1957C142.692 27.7637 142.05 27.1757 141.594 26.4317C141.138 25.6757 140.91 24.8177 140.91 23.8577C140.91 22.8857 141.132 22.0277 141.576 21.2837C142.032 20.5277 142.65 19.9397 143.43 19.5197C144.21 19.0877 145.092 18.8717 146.076 18.8717C147.024 18.8717 147.876 19.0757 148.632 19.4837C149.4 19.8797 150.006 20.4557 150.45 21.2117C150.894 21.9557 151.116 22.8497 151.116 23.8937C151.116 24.0017 151.11 24.1277 151.098 24.2717C151.086 24.4037 151.074 24.5297 151.062 24.6497H143.196V23.0117H149.586L148.506 23.4977C148.506 22.9937 148.404 22.5557 148.2 22.1837C147.996 21.8117 147.714 21.5237 147.354 21.3197C146.994 21.1037 146.574 20.9957 146.094 20.9957C145.614 20.9957 145.188 21.1037 144.816 21.3197C144.456 21.5237 144.174 21.8177 143.97 22.2017C143.766 22.5737 143.664 23.0177 143.664 23.5337V23.9657C143.664 24.4937 143.778 24.9617 144.006 25.3697C144.246 25.7657 144.576 26.0717 144.996 26.2877C145.428 26.4917 145.932 26.5937 146.508 26.5937C147.024 26.5937 147.474 26.5157 147.858 26.3597C148.254 26.2037 148.614 25.9697 148.938 25.6577L150.432 27.2777C149.988 27.7817 149.43 28.1717 148.758 28.4477C148.086 28.7117 147.312 28.8437 146.436 28.8437ZM158.872 18.8717C159.64 18.8717 160.324 19.0277 160.924 19.3397C161.536 19.6397 162.016 20.1077 162.364 20.7437C162.712 21.3677 162.886 22.1717 162.886 23.1557V28.6997H160.078V23.5877C160.078 22.8077 159.904 22.2317 159.556 21.8597C159.22 21.4877 158.74 21.3017 158.116 21.3017C157.672 21.3017 157.27 21.3977 156.91 21.5897C156.562 21.7697 156.286 22.0517 156.082 22.4357C155.89 22.8197 155.794 23.3117 155.794 23.9117V28.6997H152.986V19.0157H155.668V21.6977L155.164 20.8877C155.512 20.2397 156.01 19.7417 156.658 19.3937C157.306 19.0457 158.044 18.8717 158.872 18.8717ZM169.391 28.8437C168.251 28.8437 167.363 28.5557 166.727 27.9797C166.091 27.3917 165.773 26.5217 165.773 25.3697V16.8737H168.581V25.3337C168.581 25.7417 168.689 26.0597 168.905 26.2877C169.121 26.5037 169.415 26.6117 169.787 26.6117C170.231 26.6117 170.609 26.4917 170.921 26.2517L171.677 28.2317C171.389 28.4357 171.041 28.5917 170.633 28.6997C170.237 28.7957 169.823 28.8437 169.391 28.8437ZM164.279 21.3917V19.2317H170.993V21.3917H164.279ZM179.194 28.6997V26.8097L179.014 26.3957V23.0117C179.014 22.4117 178.828 21.9437 178.456 21.6077C178.096 21.2717 177.538 21.1037 176.782 21.1037C176.266 21.1037 175.756 21.1877 175.252 21.3557C174.76 21.5117 174.34 21.7277 173.992 22.0037L172.984 20.0417C173.512 19.6697 174.148 19.3817 174.892 19.1777C175.636 18.9737 176.392 18.8717 177.16 18.8717C178.636 18.8717 179.782 19.2197 180.598 19.9157C181.414 20.6117 181.822 21.6977 181.822 23.1737V28.6997H179.194ZM176.242 28.8437C175.486 28.8437 174.838 28.7177 174.298 28.4657C173.758 28.2017 173.344 27.8477 173.056 27.4037C172.768 26.9597 172.624 26.4617 172.624 25.9097C172.624 25.3337 172.762 24.8297 173.038 24.3977C173.326 23.9657 173.776 23.6297 174.388 23.3897C175 23.1377 175.798 23.0117 176.782 23.0117H179.356V24.6497H177.088C176.428 24.6497 175.972 24.7577 175.72 24.9737C175.48 25.1897 175.36 25.4597 175.36 25.7837C175.36 26.1437 175.498 26.4317 175.774 26.6477C176.062 26.8517 176.452 26.9537 176.944 26.9537C177.412 26.9537 177.832 26.8457 178.204 26.6297C178.576 26.4017 178.846 26.0717 179.014 25.6397L179.446 26.9357C179.242 27.5597 178.87 28.0337 178.33 28.3577C177.79 28.6817 177.094 28.8437 176.242 28.8437ZM184.363 28.6997V15.3437H187.171V28.6997H184.363ZM193.035 28.8437C192.207 28.8437 191.409 28.7477 190.641 28.5557C189.885 28.3517 189.285 28.0997 188.841 27.7997L189.777 25.7837C190.221 26.0597 190.743 26.2877 191.343 26.4677C191.955 26.6357 192.555 26.7197 193.143 26.7197C193.791 26.7197 194.247 26.6417 194.511 26.4857C194.787 26.3297 194.925 26.1137 194.925 25.8377C194.925 25.6097 194.817 25.4417 194.601 25.3337C194.397 25.2137 194.121 25.1237 193.773 25.0637C193.425 25.0037 193.041 24.9437 192.621 24.8837C192.213 24.8237 191.799 24.7457 191.379 24.6497C190.959 24.5417 190.575 24.3857 190.227 24.1817C189.879 23.9777 189.597 23.7017 189.381 23.3537C189.177 23.0057 189.075 22.5557 189.075 22.0037C189.075 21.3917 189.249 20.8517 189.597 20.3837C189.957 19.9157 190.473 19.5497 191.145 19.2857C191.817 19.0097 192.621 18.8717 193.557 18.8717C194.217 18.8717 194.889 18.9437 195.573 19.0877C196.257 19.2317 196.827 19.4417 197.283 19.7177L196.347 21.7157C195.879 21.4397 195.405 21.2537 194.925 21.1577C194.457 21.0497 194.001 20.9957 193.557 20.9957C192.933 20.9957 192.477 21.0797 192.189 21.2477C191.901 21.4157 191.757 21.6317 191.757 21.8957C191.757 22.1357 191.859 22.3157 192.063 22.4357C192.279 22.5557 192.561 22.6517 192.909 22.7237C193.257 22.7957 193.635 22.8617 194.043 22.9217C194.463 22.9697 194.883 23.0477 195.303 23.1557C195.723 23.2637 196.101 23.4197 196.437 23.6237C196.785 23.8157 197.067 24.0857 197.283 24.4337C197.499 24.7697 197.607 25.2137 197.607 25.7657C197.607 26.3657 197.427 26.8997 197.067 27.3677C196.707 27.8237 196.185 28.1837 195.501 28.4477C194.829 28.7117 194.007 28.8437 193.035 28.8437Z" fill="#C7F0FD"/>
<path d="M72.6299 42.0708V35.7708H75.3569C75.9209 35.7708 76.4069 35.8638 76.8149 36.0498C77.2229 36.2298 77.5379 36.4908 77.7599 36.8328C77.9819 37.1748 78.0929 37.5828 78.0929 38.0568C78.0929 38.5248 77.9819 38.9298 77.7599 39.2718C77.5379 39.6138 77.2229 39.8778 76.8149 40.0638C76.4069 40.2438 75.9209 40.3338 75.3569 40.3338H73.4399L74.0879 39.6768V42.0708H72.6299ZM74.0879 39.8388L73.4399 39.1458H75.2759C75.7259 39.1458 76.0619 39.0498 76.2839 38.8578C76.5059 38.6658 76.6169 38.3988 76.6169 38.0568C76.6169 37.7088 76.5059 37.4388 76.2839 37.2468C76.0619 37.0548 75.7259 36.9588 75.2759 36.9588H73.4399L74.0879 36.2658V39.8388ZM79.0261 42.0708V37.2288H80.3671V38.5968L80.1781 38.2008C80.3221 37.8588 80.5531 37.6008 80.8711 37.4268C81.1891 37.2468 81.5761 37.1568 82.0321 37.1568V38.4528C81.9721 38.4468 81.9181 38.4438 81.8701 38.4438C81.8221 38.4378 81.7711 38.4348 81.7171 38.4348C81.3331 38.4348 81.0211 38.5458 80.7811 38.7678C80.5471 38.9838 80.4301 39.3228 80.4301 39.7848V42.0708H79.0261ZM85.2347 42.1428C84.6827 42.1428 84.1967 42.0348 83.7767 41.8188C83.3627 41.6028 83.0417 41.3088 82.8137 40.9368C82.5857 40.5588 82.4717 40.1298 82.4717 39.6498C82.4717 39.1638 82.5827 38.7348 82.8047 38.3628C83.0327 37.9848 83.3417 37.6908 83.7317 37.4808C84.1217 37.2648 84.5627 37.1568 85.0547 37.1568C85.5287 37.1568 85.9547 37.2588 86.3327 37.4628C86.7167 37.6608 87.0197 37.9488 87.2417 38.3268C87.4637 38.6988 87.5747 39.1458 87.5747 39.6678C87.5747 39.7218 87.5717 39.7848 87.5657 39.8568C87.5597 39.9228 87.5537 39.9858 87.5477 40.0458H83.6147V39.2268H86.8097L86.2697 39.4698C86.2697 39.2178 86.2187 38.9988 86.1167 38.8128C86.0147 38.6268 85.8737 38.4828 85.6937 38.3808C85.5137 38.2728 85.3037 38.2188 85.0637 38.2188C84.8237 38.2188 84.6107 38.2728 84.4247 38.3808C84.2447 38.4828 84.1037 38.6298 84.0017 38.8218C83.8997 39.0078 83.8487 39.2298 83.8487 39.4878V39.7038C83.8487 39.9678 83.9057 40.2018 84.0197 40.4058C84.1397 40.6038 84.3047 40.7568 84.5147 40.8648C84.7307 40.9668 84.9827 41.0178 85.2707 41.0178C85.5287 41.0178 85.7537 40.9788 85.9457 40.9008C86.1437 40.8228 86.3237 40.7058 86.4857 40.5498L87.2327 41.3598C87.0107 41.6118 86.7317 41.8068 86.3957 41.9448C86.0597 42.0768 85.6727 42.1428 85.2347 42.1428ZM90.8495 42.1428C90.3275 42.1428 89.8625 42.0378 89.4545 41.8278C89.0465 41.6118 88.7255 41.3148 88.4915 40.9368C88.2635 40.5588 88.1495 40.1298 88.1495 39.6498C88.1495 39.1638 88.2635 38.7348 88.4915 38.3628C88.7255 37.9848 89.0465 37.6908 89.4545 37.4808C89.8625 37.2648 90.3275 37.1568 90.8495 37.1568C91.3595 37.1568 91.8035 37.2648 92.1815 37.4808C92.5595 37.6908 92.8385 37.9938 93.0185 38.3898L91.9295 38.9748C91.8035 38.7468 91.6445 38.5788 91.4525 38.4708C91.2665 38.3628 91.0625 38.3088 90.8405 38.3088C90.6005 38.3088 90.3845 38.3628 90.1925 38.4708C90.0005 38.5788 89.8475 38.7318 89.7335 38.9298C89.6255 39.1278 89.5715 39.3678 89.5715 39.6498C89.5715 39.9318 89.6255 40.1718 89.7335 40.3698C89.8475 40.5678 90.0005 40.7208 90.1925 40.8288C90.3845 40.9368 90.6005 40.9908 90.8405 40.9908C91.0625 40.9908 91.2665 40.9398 91.4525 40.8378C91.6445 40.7298 91.8035 40.5588 91.9295 40.3248L93.0185 40.9188C92.8385 41.3088 92.5595 41.6118 92.1815 41.8278C91.8035 42.0378 91.3595 42.1428 90.8495 42.1428ZM93.8005 42.0708V37.2288H95.2045V42.0708H93.8005ZM94.5025 36.5538C94.2445 36.5538 94.0345 36.4788 93.8725 36.3288C93.7105 36.1788 93.6295 35.9928 93.6295 35.7708C93.6295 35.5488 93.7105 35.3628 93.8725 35.2128C94.0345 35.0628 94.2445 34.9878 94.5025 34.9878C94.7605 34.9878 94.9705 35.0598 95.1325 35.2038C95.2945 35.3418 95.3755 35.5218 95.3755 35.7438C95.3755 35.9778 95.2945 36.1728 95.1325 36.3288C94.9765 36.4788 94.7665 36.5538 94.5025 36.5538ZM98.1365 42.1428C97.7225 42.1428 97.3235 42.0948 96.9395 41.9988C96.5615 41.8968 96.2615 41.7708 96.0395 41.6208L96.5075 40.6128C96.7295 40.7508 96.9905 40.8648 97.2905 40.9548C97.5965 41.0388 97.8965 41.0808 98.1905 41.0808C98.5145 41.0808 98.7425 41.0418 98.8745 40.9638C99.0125 40.8858 99.0815 40.7778 99.0815 40.6398C99.0815 40.5258 99.0275 40.4418 98.9195 40.3878C98.8175 40.3278 98.6795 40.2828 98.5055 40.2528C98.3315 40.2228 98.1395 40.1928 97.9295 40.1628C97.7255 40.1328 97.5185 40.0938 97.3085 40.0458C97.0985 39.9918 96.9065 39.9138 96.7325 39.8118C96.5585 39.7098 96.4175 39.5718 96.3095 39.3978C96.2075 39.2238 96.1565 38.9988 96.1565 38.7228C96.1565 38.4168 96.2435 38.1468 96.4175 37.9128C96.5975 37.6788 96.8555 37.4958 97.1915 37.3638C97.5275 37.2258 97.9295 37.1568 98.3975 37.1568C98.7275 37.1568 99.0635 37.1928 99.4055 37.2648C99.7475 37.3368 100.032 37.4418 100.26 37.5798L99.7925 38.5788C99.5585 38.4408 99.3215 38.3478 99.0815 38.2998C98.8475 38.2458 98.6195 38.2188 98.3975 38.2188C98.0855 38.2188 97.8575 38.2608 97.7135 38.3448C97.5695 38.4288 97.4975 38.5368 97.4975 38.6688C97.4975 38.7888 97.5485 38.8788 97.6505 38.9388C97.7585 38.9988 97.8995 39.0468 98.0735 39.0828C98.2475 39.1188 98.4365 39.1518 98.6405 39.1818C98.8505 39.2058 99.0605 39.2448 99.2705 39.2988C99.4805 39.3528 99.6695 39.4308 99.8375 39.5328C100.011 39.6288 100.152 39.7638 100.26 39.9378C100.368 40.1058 100.422 40.3278 100.422 40.6038C100.422 40.9038 100.332 41.1708 100.152 41.4048C99.9725 41.6328 99.7115 41.8128 99.3695 41.9448C99.0335 42.0768 98.6225 42.1428 98.1365 42.1428ZM101.289 42.0708V37.2288H102.693V42.0708H101.289ZM101.991 36.5538C101.733 36.5538 101.523 36.4788 101.361 36.3288C101.199 36.1788 101.118 35.9928 101.118 35.7708C101.118 35.5488 101.199 35.3628 101.361 35.2128C101.523 35.0628 101.733 34.9878 101.991 34.9878C102.249 34.9878 102.459 35.0598 102.621 35.2038C102.783 35.3418 102.864 35.5218 102.864 35.7438C102.864 35.9778 102.783 36.1728 102.621 36.3288C102.465 36.4788 102.255 36.5538 101.991 36.5538ZM106.3 42.1428C105.784 42.1428 105.325 42.0348 104.923 41.8188C104.527 41.6028 104.212 41.3088 103.978 40.9368C103.75 40.5588 103.636 40.1298 103.636 39.6498C103.636 39.1638 103.75 38.7348 103.978 38.3628C104.212 37.9848 104.527 37.6908 104.923 37.4808C105.325 37.2648 105.784 37.1568 106.3 37.1568C106.81 37.1568 107.266 37.2648 107.668 37.4808C108.07 37.6908 108.385 37.9818 108.613 38.3538C108.841 38.7258 108.955 39.1578 108.955 39.6498C108.955 40.1298 108.841 40.5588 108.613 40.9368C108.385 41.3088 108.07 41.6028 107.668 41.8188C107.266 42.0348 106.81 42.1428 106.3 42.1428ZM106.3 40.9908C106.534 40.9908 106.744 40.9368 106.93 40.8288C107.116 40.7208 107.263 40.5678 107.371 40.3698C107.479 40.1658 107.533 39.9258 107.533 39.6498C107.533 39.3678 107.479 39.1278 107.371 38.9298C107.263 38.7318 107.116 38.5788 106.93 38.4708C106.744 38.3628 106.534 38.3088 106.3 38.3088C106.066 38.3088 105.856 38.3628 105.67 38.4708C105.484 38.5788 105.334 38.7318 105.22 38.9298C105.112 39.1278 105.058 39.3678 105.058 39.6498C105.058 39.9258 105.112 40.1658 105.22 40.3698C105.334 40.5678 105.484 40.7208 105.67 40.8288C105.856 40.9368 106.066 40.9908 106.3 40.9908ZM112.836 37.1568C113.22 37.1568 113.562 37.2348 113.862 37.3908C114.168 37.5408 114.408 37.7748 114.582 38.0928C114.756 38.4048 114.843 38.8068 114.843 39.2988V42.0708H113.439V39.5148C113.439 39.1248 113.352 38.8368 113.178 38.6508C113.01 38.4648 112.77 38.3718 112.458 38.3718C112.236 38.3718 112.035 38.4198 111.855 38.5158C111.681 38.6058 111.543 38.7468 111.441 38.9388C111.345 39.1308 111.297 39.3768 111.297 39.6768V42.0708H109.893V37.2288H111.234V38.5698L110.982 38.1648C111.156 37.8408 111.405 37.5918 111.729 37.4178C112.053 37.2438 112.422 37.1568 112.836 37.1568ZM121.527 42.1428C121.119 42.1428 120.762 42.0528 120.456 41.8728C120.15 41.6928 119.91 41.4198 119.736 41.0538C119.568 40.6818 119.484 40.2138 119.484 39.6498C119.484 39.0798 119.565 38.6118 119.727 38.2458C119.889 37.8798 120.123 37.6068 120.429 37.4268C120.735 37.2468 121.101 37.1568 121.527 37.1568C121.983 37.1568 122.391 37.2618 122.751 37.4718C123.117 37.6758 123.405 37.9638 123.615 38.3358C123.831 38.7078 123.939 39.1458 123.939 39.6498C123.939 40.1598 123.831 40.6008 123.615 40.9728C123.405 41.3448 123.117 41.6328 122.751 41.8368C122.391 42.0408 121.983 42.1428 121.527 42.1428ZM118.665 43.8168V37.2288H120.006V38.2188L119.979 39.6588L120.069 41.0898V43.8168H118.665ZM121.284 40.9908C121.518 40.9908 121.725 40.9368 121.905 40.8288C122.091 40.7208 122.238 40.5678 122.346 40.3698C122.46 40.1658 122.517 39.9258 122.517 39.6498C122.517 39.3678 122.46 39.1278 122.346 38.9298C122.238 38.7318 122.091 38.5788 121.905 38.4708C121.725 38.3628 121.518 38.3088 121.284 38.3088C121.05 38.3088 120.84 38.3628 120.654 38.4708C120.468 38.5788 120.321 38.7318 120.213 38.9298C120.105 39.1278 120.051 39.3678 120.051 39.6498C120.051 39.9258 120.105 40.1658 120.213 40.3698C120.321 40.5678 120.468 40.7208 120.654 40.8288C120.84 40.9368 121.05 40.9908 121.284 40.9908ZM124.879 42.0708V37.2288H126.22V38.5968L126.031 38.2008C126.175 37.8588 126.406 37.6008 126.724 37.4268C127.042 37.2468 127.429 37.1568 127.885 37.1568V38.4528C127.825 38.4468 127.771 38.4438 127.723 38.4438C127.675 38.4378 127.624 38.4348 127.57 38.4348C127.186 38.4348 126.874 38.5458 126.634 38.7678C126.4 38.9838 126.283 39.3228 126.283 39.7848V42.0708H124.879ZM130.988 42.1428C130.472 42.1428 130.013 42.0348 129.611 41.8188C129.215 41.6028 128.9 41.3088 128.666 40.9368C128.438 40.5588 128.324 40.1298 128.324 39.6498C128.324 39.1638 128.438 38.7348 128.666 38.3628C128.9 37.9848 129.215 37.6908 129.611 37.4808C130.013 37.2648 130.472 37.1568 130.988 37.1568C131.498 37.1568 131.954 37.2648 132.356 37.4808C132.758 37.6908 133.073 37.9818 133.301 38.3538C133.529 38.7258 133.643 39.1578 133.643 39.6498C133.643 40.1298 133.529 40.5588 133.301 40.9368C133.073 41.3088 132.758 41.6028 132.356 41.8188C131.954 42.0348 131.498 42.1428 130.988 42.1428ZM130.988 40.9908C131.222 40.9908 131.432 40.9368 131.618 40.8288C131.804 40.7208 131.951 40.5678 132.059 40.3698C132.167 40.1658 132.221 39.9258 132.221 39.6498C132.221 39.3678 132.167 39.1278 132.059 38.9298C131.951 38.7318 131.804 38.5788 131.618 38.4708C131.432 38.3628 131.222 38.3088 130.988 38.3088C130.754 38.3088 130.544 38.3628 130.358 38.4708C130.172 38.5788 130.022 38.7318 129.908 38.9298C129.8 39.1278 129.746 39.3678 129.746 39.6498C129.746 39.9258 129.8 40.1658 129.908 40.3698C130.022 40.5678 130.172 40.7208 130.358 40.8288C130.544 40.9368 130.754 40.9908 130.988 40.9908ZM136.211 42.1428C135.797 42.1428 135.398 42.0948 135.014 41.9988C134.636 41.8968 134.336 41.7708 134.114 41.6208L134.582 40.6128C134.804 40.7508 135.065 40.8648 135.365 40.9548C135.671 41.0388 135.971 41.0808 136.265 41.0808C136.589 41.0808 136.817 41.0418 136.949 40.9638C137.087 40.8858 137.156 40.7778 137.156 40.6398C137.156 40.5258 137.102 40.4418 136.994 40.3878C136.892 40.3278 136.754 40.2828 136.58 40.2528C136.406 40.2228 136.214 40.1928 136.004 40.1628C135.8 40.1328 135.593 40.0938 135.383 40.0458C135.173 39.9918 134.981 39.9138 134.807 39.8118C134.633 39.7098 134.492 39.5718 134.384 39.3978C134.282 39.2238 134.231 38.9988 134.231 38.7228C134.231 38.4168 134.318 38.1468 134.492 37.9128C134.672 37.6788 134.93 37.4958 135.266 37.3638C135.602 37.2258 136.004 37.1568 136.472 37.1568C136.802 37.1568 137.138 37.1928 137.48 37.2648C137.822 37.3368 138.107 37.4418 138.335 37.5798L137.867 38.5788C137.633 38.4408 137.396 38.3478 137.156 38.2998C136.922 38.2458 136.694 38.2188 136.472 38.2188C136.16 38.2188 135.932 38.2608 135.788 38.3448C135.644 38.4288 135.572 38.5368 135.572 38.6688C135.572 38.7888 135.623 38.8788 135.725 38.9388C135.833 38.9988 135.974 39.0468 136.148 39.0828C136.322 39.1188 136.511 39.1518 136.715 39.1818C136.925 39.2058 137.135 39.2448 137.345 39.2988C137.555 39.3528 137.744 39.4308 137.912 39.5328C138.086 39.6288 138.227 39.7638 138.335 39.9378C138.443 40.1058 138.497 40.3278 138.497 40.6038C138.497 40.9038 138.407 41.1708 138.227 41.4048C138.047 41.6328 137.786 41.8128 137.444 41.9448C137.108 42.0768 136.697 42.1428 136.211 42.1428ZM141.343 42.1428C140.773 42.1428 140.329 41.9988 140.011 41.7108C139.693 41.4168 139.534 40.9818 139.534 40.4058V36.1578H140.938V40.3878C140.938 40.5918 140.992 40.7508 141.1 40.8648C141.208 40.9728 141.355 41.0268 141.541 41.0268C141.763 41.0268 141.952 40.9668 142.108 40.8468L142.486 41.8368C142.342 41.9388 142.168 42.0168 141.964 42.0708C141.766 42.1188 141.559 42.1428 141.343 42.1428ZM138.787 38.4168V37.3368H142.144V38.4168H138.787ZM146.217 37.1568C146.601 37.1568 146.943 37.2348 147.243 37.3908C147.549 37.5408 147.789 37.7748 147.963 38.0928C148.137 38.4048 148.224 38.8068 148.224 39.2988V42.0708H146.82V39.5148C146.82 39.1248 146.733 38.8368 146.559 38.6508C146.391 38.4648 146.151 38.3718 145.839 38.3718C145.617 38.3718 145.416 38.4198 145.236 38.5158C145.062 38.6058 144.924 38.7468 144.822 38.9388C144.726 39.1308 144.678 39.3768 144.678 39.6768V42.0708H143.274V35.3928H144.678V38.5698L144.363 38.1648C144.537 37.8408 144.786 37.5918 145.11 37.4178C145.434 37.2438 145.803 37.1568 146.217 37.1568ZM151.935 42.1428C151.383 42.1428 150.897 42.0348 150.477 41.8188C150.063 41.6028 149.742 41.3088 149.514 40.9368C149.286 40.5588 149.172 40.1298 149.172 39.6498C149.172 39.1638 149.283 38.7348 149.505 38.3628C149.733 37.9848 150.042 37.6908 150.432 37.4808C150.822 37.2648 151.263 37.1568 151.755 37.1568C152.229 37.1568 152.655 37.2588 153.033 37.4628C153.417 37.6608 153.72 37.9488 153.942 38.3268C154.164 38.6988 154.275 39.1458 154.275 39.6678C154.275 39.7218 154.272 39.7848 154.266 39.8568C154.26 39.9228 154.254 39.9858 154.248 40.0458H150.315V39.2268H153.51L152.97 39.4698C152.97 39.2178 152.919 38.9988 152.817 38.8128C152.715 38.6268 152.574 38.4828 152.394 38.3808C152.214 38.2728 152.004 38.2188 151.764 38.2188C151.524 38.2188 151.311 38.2728 151.125 38.3808C150.945 38.4828 150.804 38.6298 150.702 38.8218C150.6 39.0078 150.549 39.2298 150.549 39.4878V39.7038C150.549 39.9678 150.606 40.2018 150.72 40.4058C150.84 40.6038 151.005 40.7568 151.215 40.8648C151.431 40.9668 151.683 41.0178 151.971 41.0178C152.229 41.0178 152.454 40.9788 152.646 40.9008C152.844 40.8228 153.024 40.7058 153.186 40.5498L153.933 41.3598C153.711 41.6118 153.432 41.8068 153.096 41.9448C152.76 42.0768 152.373 42.1428 151.935 42.1428ZM157.19 42.1428C156.62 42.1428 156.176 41.9988 155.858 41.7108C155.54 41.4168 155.381 40.9818 155.381 40.4058V36.1578H156.785V40.3878C156.785 40.5918 156.839 40.7508 156.947 40.8648C157.055 40.9728 157.202 41.0268 157.388 41.0268C157.61 41.0268 157.799 40.9668 157.955 40.8468L158.333 41.8368C158.189 41.9388 158.015 42.0168 157.811 42.0708C157.613 42.1188 157.406 42.1428 157.19 42.1428ZM154.634 38.4168V37.3368H157.991V38.4168H154.634ZM159.121 42.0708V37.2288H160.525V42.0708H159.121ZM159.823 36.5538C159.565 36.5538 159.355 36.4788 159.193 36.3288C159.031 36.1788 158.95 35.9928 158.95 35.7708C158.95 35.5488 159.031 35.3628 159.193 35.2128C159.355 35.0628 159.565 34.9878 159.823 34.9878C160.081 34.9878 160.291 35.0598 160.453 35.2038C160.615 35.3418 160.696 35.5218 160.696 35.7438C160.696 35.9778 160.615 36.1728 160.453 36.3288C160.297 36.4788 160.087 36.5538 159.823 36.5538ZM164.168 42.1428C163.646 42.1428 163.181 42.0378 162.773 41.8278C162.365 41.6118 162.044 41.3148 161.81 40.9368C161.582 40.5588 161.468 40.1298 161.468 39.6498C161.468 39.1638 161.582 38.7348 161.81 38.3628C162.044 37.9848 162.365 37.6908 162.773 37.4808C163.181 37.2648 163.646 37.1568 164.168 37.1568C164.678 37.1568 165.122 37.2648 165.5 37.4808C165.878 37.6908 166.157 37.9938 166.337 38.3898L165.248 38.9748C165.122 38.7468 164.963 38.5788 164.771 38.4708C164.585 38.3628 164.381 38.3088 164.159 38.3088C163.919 38.3088 163.703 38.3628 163.511 38.4708C163.319 38.5788 163.166 38.7318 163.052 38.9298C162.944 39.1278 162.89 39.3678 162.89 39.6498C162.89 39.9318 162.944 40.1718 163.052 40.3698C163.166 40.5678 163.319 40.7208 163.511 40.8288C163.703 40.9368 163.919 40.9908 164.159 40.9908C164.381 40.9908 164.585 40.9398 164.771 40.8378C164.963 40.7298 165.122 40.5588 165.248 40.3248L166.337 40.9188C166.157 41.3088 165.878 41.6118 165.5 41.8278C165.122 42.0378 164.678 42.1428 164.168 42.1428ZM168.774 42.1428C168.36 42.1428 167.961 42.0948 167.577 41.9988C167.199 41.8968 166.899 41.7708 166.677 41.6208L167.145 40.6128C167.367 40.7508 167.628 40.8648 167.928 40.9548C168.234 41.0388 168.534 41.0808 168.828 41.0808C169.152 41.0808 169.38 41.0418 169.512 40.9638C169.65 40.8858 169.719 40.7778 169.719 40.6398C169.719 40.5258 169.665 40.4418 169.557 40.3878C169.455 40.3278 169.317 40.2828 169.143 40.2528C168.969 40.2228 168.777 40.1928 168.567 40.1628C168.363 40.1328 168.156 40.0938 167.946 40.0458C167.736 39.9918 167.544 39.9138 167.37 39.8118C167.196 39.7098 167.055 39.5718 166.947 39.3978C166.845 39.2238 166.794 38.9988 166.794 38.7228C166.794 38.4168 166.881 38.1468 167.055 37.9128C167.235 37.6788 167.493 37.4958 167.829 37.3638C168.165 37.2258 168.567 37.1568 169.035 37.1568C169.365 37.1568 169.701 37.1928 170.043 37.2648C170.385 37.3368 170.67 37.4418 170.898 37.5798L170.43 38.5788C170.196 38.4408 169.959 38.3478 169.719 38.2998C169.485 38.2458 169.257 38.2188 169.035 38.2188C168.723 38.2188 168.495 38.2608 168.351 38.3448C168.207 38.4288 168.135 38.5368 168.135 38.6688C168.135 38.7888 168.186 38.8788 168.288 38.9388C168.396 38.9988 168.537 39.0468 168.711 39.0828C168.885 39.1188 169.074 39.1518 169.278 39.1818C169.488 39.2058 169.698 39.2448 169.908 39.2988C170.118 39.3528 170.307 39.4308 170.475 39.5328C170.649 39.6288 170.79 39.7638 170.898 39.9378C171.006 40.1058 171.06 40.3278 171.06 40.6038C171.06 40.9038 170.97 41.1708 170.79 41.4048C170.61 41.6328 170.349 41.8128 170.007 41.9448C169.671 42.0768 169.26 42.1428 168.774 42.1428Z" fill="#C7F0FD"/>
<path d="M26.6502 38.8945C20.2463 38.8945 15.0068 33.6437 15.0068 27.2261H2.0697C2.0697 40.8392 13.0662 51.8593 26.6502 51.8593V38.8945Z" fill="#C7F0FD"/>
<path d="M26.6502 38.8945C20.2463 38.8945 15.0068 33.6437 15.0068 27.2261H2.0697C2.0697 40.8392 13.0662 51.8593 26.6502 51.8593V38.8945Z" fill="#C7F0FD"/>
<path d="M26.6502 33.4492V27.2261H20.4404C21.6695 30.0135 23.8687 32.2824 26.6502 33.4492Z" fill="#C7F0FD"/>
<path d="M26.6504 0C13.3899 0 2.39336 9.46435 0 22.0403H12.6783H20.2465H31.8899V33.7087V41.2931V53.9987C44.4389 51.6002 53.883 40.5152 53.883 27.2911C53.8183 12.187 41.6574 0 26.6504 0ZM37 46.6735V16.8543H7.24474C10.9965 9.8533 18.3706 5.18595 26.6504 5.18595C38.7466 5.18595 48.6434 15.1041 48.6434 27.2262C48.6434 35.5237 44.0508 42.9785 37 46.6735Z" fill="#C7F0FD"/>
</svg>
