<svg width="208" height="54" viewBox="0 0 208 54" fill="none" xmlns="http://www.w3.org/2000/svg">
<g opacity="0.7">
<path d="M86.0924 29.9275L80.6564 17.3275H83.8064L88.5584 28.4875H86.7044L91.5284 17.3275H94.4264L88.9724 29.9275H86.0924ZM95.4386 29.9275V20.2435H98.2466V29.9275H95.4386ZM96.8426 18.8935C96.3266 18.8935 95.9066 18.7435 95.5826 18.4435C95.2586 18.1435 95.0966 17.7715 95.0966 17.3275C95.0966 16.8835 95.2586 16.5115 95.5826 16.2115C95.9066 15.9115 96.3266 15.7615 96.8426 15.7615C97.3586 15.7615 97.7786 15.9055 98.1026 16.1935C98.4266 16.4695 98.5886 16.8295 98.5886 17.2735C98.5886 17.7415 98.4266 18.1315 98.1026 18.4435C97.7906 18.7435 97.3706 18.8935 96.8426 18.8935ZM104.813 30.0715C103.673 30.0715 102.785 29.7835 102.149 29.2075C101.513 28.6195 101.195 27.7495 101.195 26.5975V18.1015H104.003V26.5615C104.003 26.9695 104.111 27.2875 104.327 27.5155C104.543 27.7315 104.837 27.8395 105.209 27.8395C105.653 27.8395 106.031 27.7195 106.343 27.4795L107.099 29.4595C106.811 29.6635 106.463 29.8195 106.055 29.9275C105.659 30.0235 105.245 30.0715 104.813 30.0715ZM99.7006 22.6195V20.4595H106.415V22.6195H99.7006ZM114.615 29.9275V28.0375L114.435 27.6235V24.2395C114.435 23.6395 114.249 23.1715 113.877 22.8355C113.517 22.4995 112.959 22.3315 112.203 22.3315C111.687 22.3315 111.177 22.4155 110.673 22.5835C110.181 22.7395 109.761 22.9555 109.413 23.2315L108.405 21.2695C108.933 20.8975 109.569 20.6095 110.313 20.4055C111.057 20.2015 111.813 20.0995 112.581 20.0995C114.057 20.0995 115.203 20.4475 116.019 21.1435C116.835 21.8395 117.243 22.9255 117.243 24.4015V29.9275H114.615ZM111.663 30.0715C110.907 30.0715 110.259 29.9455 109.719 29.6935C109.179 29.4295 108.765 29.0755 108.477 28.6315C108.189 28.1875 108.045 27.6895 108.045 27.1375C108.045 26.5615 108.183 26.0575 108.459 25.6255C108.747 25.1935 109.197 24.8575 109.809 24.6175C110.421 24.3655 111.219 24.2395 112.203 24.2395H114.777V25.8775H112.509C111.849 25.8775 111.393 25.9855 111.141 26.2015C110.901 26.4175 110.781 26.6875 110.781 27.0115C110.781 27.3715 110.919 27.6595 111.195 27.8755C111.483 28.0795 111.873 28.1815 112.365 28.1815C112.833 28.1815 113.253 28.0735 113.625 27.8575C113.997 27.6295 114.267 27.2995 114.435 26.8675L114.867 28.1635C114.663 28.7875 114.291 29.2615 113.751 29.5855C113.211 29.9095 112.515 30.0715 111.663 30.0715ZM119.982 29.9275V17.3275H125.706C127.074 17.3275 128.28 17.5915 129.324 18.1195C130.368 18.6355 131.184 19.3615 131.772 20.2975C132.36 21.2335 132.654 22.3435 132.654 23.6275C132.654 24.8995 132.36 26.0095 131.772 26.9575C131.184 27.8935 130.368 28.6255 129.324 29.1535C128.28 29.6695 127.074 29.9275 125.706 29.9275H119.982ZM122.898 27.5335H125.562C126.402 27.5335 127.128 27.3775 127.74 27.0655C128.364 26.7415 128.844 26.2855 129.18 25.6975C129.528 25.1095 129.702 24.4195 129.702 23.6275C129.702 22.8235 129.528 22.1335 129.18 21.5575C128.844 20.9695 128.364 20.5195 127.74 20.2075C127.128 19.8835 126.402 19.7215 125.562 19.7215H122.898V27.5335ZM139.461 30.0715C138.357 30.0715 137.385 29.8555 136.545 29.4235C135.717 28.9915 135.075 28.4035 134.619 27.6595C134.163 26.9035 133.935 26.0455 133.935 25.0855C133.935 24.1135 134.157 23.2555 134.601 22.5115C135.057 21.7555 135.675 21.1675 136.455 20.7475C137.235 20.3155 138.117 20.0995 139.101 20.0995C140.049 20.0995 140.901 20.3035 141.657 20.7115C142.425 21.1075 143.031 21.6835 143.475 22.4395C143.919 23.1835 144.141 24.0775 144.141 25.1215C144.141 25.2295 144.135 25.3555 144.123 25.4995C144.111 25.6315 144.099 25.7575 144.087 25.8775H136.221V24.2395H142.611L141.531 24.7255C141.531 24.2215 141.429 23.7835 141.225 23.4115C141.021 23.0395 140.739 22.7515 140.379 22.5475C140.019 22.3315 139.599 22.2235 139.119 22.2235C138.639 22.2235 138.213 22.3315 137.841 22.5475C137.481 22.7515 137.199 23.0455 136.995 23.4295C136.791 23.8015 136.689 24.2455 136.689 24.7615V25.1935C136.689 25.7215 136.803 26.1895 137.031 26.5975C137.271 26.9935 137.601 27.2995 138.021 27.5155C138.453 27.7195 138.957 27.8215 139.533 27.8215C140.049 27.8215 140.499 27.7435 140.883 27.5875C141.279 27.4315 141.639 27.1975 141.963 26.8855L143.457 28.5055C143.013 29.0095 142.455 29.3995 141.783 29.6755C141.111 29.9395 140.337 30.0715 139.461 30.0715ZM151.897 20.0995C152.665 20.0995 153.349 20.2555 153.949 20.5675C154.561 20.8675 155.041 21.3355 155.389 21.9715C155.737 22.5955 155.911 23.3995 155.911 24.3835V29.9275H153.103V24.8155C153.103 24.0355 152.929 23.4595 152.581 23.0875C152.245 22.7155 151.765 22.5295 151.141 22.5295C150.697 22.5295 150.295 22.6255 149.935 22.8175C149.587 22.9975 149.311 23.2795 149.107 23.6635C148.915 24.0475 148.819 24.5395 148.819 25.1395V29.9275H146.011V20.2435H148.693V22.9255L148.189 22.1155C148.537 21.4675 149.035 20.9695 149.683 20.6215C150.331 20.2735 151.069 20.0995 151.897 20.0995ZM162.416 30.0715C161.276 30.0715 160.388 29.7835 159.752 29.2075C159.116 28.6195 158.798 27.7495 158.798 26.5975V18.1015H161.606V26.5615C161.606 26.9695 161.714 27.2875 161.93 27.5155C162.146 27.7315 162.44 27.8395 162.812 27.8395C163.256 27.8395 163.634 27.7195 163.946 27.4795L164.702 29.4595C164.414 29.6635 164.066 29.8195 163.658 29.9275C163.262 30.0235 162.848 30.0715 162.416 30.0715ZM157.304 22.6195V20.4595H164.018V22.6195H157.304ZM172.218 29.9275V28.0375L172.038 27.6235V24.2395C172.038 23.6395 171.852 23.1715 171.48 22.8355C171.12 22.4995 170.562 22.3315 169.806 22.3315C169.29 22.3315 168.78 22.4155 168.276 22.5835C167.784 22.7395 167.364 22.9555 167.016 23.2315L166.008 21.2695C166.536 20.8975 167.172 20.6095 167.916 20.4055C168.66 20.2015 169.416 20.0995 170.184 20.0995C171.66 20.0995 172.806 20.4475 173.622 21.1435C174.438 21.8395 174.846 22.9255 174.846 24.4015V29.9275H172.218ZM169.266 30.0715C168.51 30.0715 167.862 29.9455 167.322 29.6935C166.782 29.4295 166.368 29.0755 166.08 28.6315C165.792 28.1875 165.648 27.6895 165.648 27.1375C165.648 26.5615 165.786 26.0575 166.062 25.6255C166.35 25.1935 166.8 24.8575 167.412 24.6175C168.024 24.3655 168.822 24.2395 169.806 24.2395H172.38V25.8775H170.112C169.452 25.8775 168.996 25.9855 168.744 26.2015C168.504 26.4175 168.384 26.6875 168.384 27.0115C168.384 27.3715 168.522 27.6595 168.798 27.8755C169.086 28.0795 169.476 28.1815 169.968 28.1815C170.436 28.1815 170.856 28.0735 171.228 27.8575C171.6 27.6295 171.87 27.2995 172.038 26.8675L172.47 28.1635C172.266 28.7875 171.894 29.2615 171.354 29.5855C170.814 29.9095 170.118 30.0715 169.266 30.0715ZM177.388 29.9275V16.5715H180.196V29.9275H177.388Z" fill="#C7F0FD"/>
<path d="M80.747 44.4524V38.1524H83.474C84.038 38.1524 84.524 38.2454 84.932 38.4314C85.34 38.6114 85.655 38.8724 85.877 39.2144C86.099 39.5564 86.21 39.9644 86.21 40.4384C86.21 40.9064 86.099 41.3114 85.877 41.6534C85.655 41.9894 85.34 42.2474 84.932 42.4274C84.524 42.6074 84.038 42.6974 83.474 42.6974H81.557L82.205 42.0584V44.4524H80.747ZM84.752 44.4524L83.177 42.1664H84.734L86.327 44.4524H84.752ZM82.205 42.2204L81.557 41.5364H83.393C83.843 41.5364 84.179 41.4404 84.401 41.2484C84.623 41.0504 84.734 40.7804 84.734 40.4384C84.734 40.0904 84.623 39.8204 84.401 39.6284C84.179 39.4364 83.843 39.3404 83.393 39.3404H81.557L82.205 38.6474V42.2204ZM89.6692 44.5244C89.1172 44.5244 88.6312 44.4164 88.2112 44.2004C87.7972 43.9844 87.4762 43.6904 87.2482 43.3184C87.0202 42.9404 86.9062 42.5114 86.9062 42.0314C86.9062 41.5454 87.0172 41.1164 87.2392 40.7444C87.4672 40.3664 87.7762 40.0724 88.1662 39.8624C88.5562 39.6464 88.9972 39.5384 89.4892 39.5384C89.9632 39.5384 90.3892 39.6404 90.7672 39.8444C91.1512 40.0424 91.4542 40.3304 91.6762 40.7084C91.8982 41.0804 92.0092 41.5274 92.0092 42.0494C92.0092 42.1034 92.0062 42.1664 92.0002 42.2384C91.9942 42.3044 91.9882 42.3674 91.9822 42.4274H88.0492V41.6084H91.2442L90.7042 41.8514C90.7042 41.5994 90.6532 41.3804 90.5512 41.1944C90.4492 41.0084 90.3082 40.8644 90.1282 40.7624C89.9482 40.6544 89.7382 40.6004 89.4982 40.6004C89.2582 40.6004 89.0452 40.6544 88.8592 40.7624C88.6792 40.8644 88.5382 41.0114 88.4362 41.2034C88.3342 41.3894 88.2832 41.6114 88.2832 41.8694V42.0854C88.2832 42.3494 88.3402 42.5834 88.4542 42.7874C88.5742 42.9854 88.7392 43.1384 88.9492 43.2464C89.1652 43.3484 89.4172 43.3994 89.7052 43.3994C89.9632 43.3994 90.1882 43.3604 90.3802 43.2824C90.5782 43.2044 90.7582 43.0874 90.9202 42.9314L91.6672 43.7414C91.4452 43.9934 91.1662 44.1884 90.8302 44.3264C90.4942 44.4584 90.1072 44.5244 89.6692 44.5244ZM92.9439 44.4524V37.7744H94.3479V44.4524H92.9439ZM95.6509 44.4524V39.6104H97.0549V44.4524H95.6509ZM96.3529 38.9354C96.0949 38.9354 95.8849 38.8604 95.7229 38.7104C95.5609 38.5604 95.4799 38.3744 95.4799 38.1524C95.4799 37.9304 95.5609 37.7444 95.7229 37.5944C95.8849 37.4444 96.0949 37.3694 96.3529 37.3694C96.6109 37.3694 96.8209 37.4414 96.9829 37.5854C97.1449 37.7234 97.2259 37.9034 97.2259 38.1254C97.2259 38.3594 97.1449 38.5544 96.9829 38.7104C96.8269 38.8604 96.6169 38.9354 96.3529 38.9354ZM101.328 44.4524V43.5074L101.238 43.3004V41.6084C101.238 41.3084 101.145 41.0744 100.959 40.9064C100.779 40.7384 100.5 40.6544 100.122 40.6544C99.864 40.6544 99.609 40.6964 99.357 40.7804C99.111 40.8584 98.901 40.9664 98.727 41.1044L98.223 40.1234C98.487 39.9374 98.805 39.7934 99.177 39.6914C99.549 39.5894 99.927 39.5384 100.311 39.5384C101.049 39.5384 101.622 39.7124 102.03 40.0604C102.438 40.4084 102.642 40.9514 102.642 41.6894V44.4524H101.328ZM99.852 44.5244C99.474 44.5244 99.15 44.4614 98.88 44.3354C98.61 44.2034 98.403 44.0264 98.259 43.8044C98.115 43.5824 98.043 43.3334 98.043 43.0574C98.043 42.7694 98.112 42.5174 98.25 42.3014C98.394 42.0854 98.619 41.9174 98.925 41.7974C99.231 41.6714 99.63 41.6084 100.122 41.6084H101.409V42.4274H100.275C99.945 42.4274 99.717 42.4814 99.591 42.5894C99.471 42.6974 99.411 42.8324 99.411 42.9944C99.411 43.1744 99.48 43.3184 99.618 43.4264C99.762 43.5284 99.957 43.5794 100.203 43.5794C100.437 43.5794 100.647 43.5254 100.833 43.4174C101.019 43.3034 101.154 43.1384 101.238 42.9224L101.454 43.5704C101.352 43.8824 101.166 44.1194 100.896 44.2814C100.626 44.4434 100.278 44.5244 99.852 44.5244ZM106.775 44.5244C106.349 44.5244 105.983 44.4344 105.677 44.2544C105.371 44.0744 105.137 43.8014 104.975 43.4354C104.813 43.0634 104.732 42.5954 104.732 42.0314C104.732 41.4614 104.816 40.9934 104.984 40.6274C105.158 40.2614 105.398 39.9884 105.704 39.8084C106.01 39.6284 106.367 39.5384 106.775 39.5384C107.231 39.5384 107.639 39.6404 107.999 39.8444C108.365 40.0484 108.653 40.3364 108.863 40.7084C109.079 41.0804 109.187 41.5214 109.187 42.0314C109.187 42.5354 109.079 42.9734 108.863 43.3454C108.653 43.7174 108.365 44.0084 107.999 44.2184C107.639 44.4224 107.231 44.5244 106.775 44.5244ZM103.913 44.4524V37.7744H105.317V40.5914L105.227 42.0224L105.254 43.4624V44.4524H103.913ZM106.532 43.3724C106.766 43.3724 106.973 43.3184 107.153 43.2104C107.339 43.1024 107.486 42.9494 107.594 42.7514C107.708 42.5474 107.765 42.3074 107.765 42.0314C107.765 41.7494 107.708 41.5094 107.594 41.3114C107.486 41.1134 107.339 40.9604 107.153 40.8524C106.973 40.7444 106.766 40.6904 106.532 40.6904C106.298 40.6904 106.088 40.7444 105.902 40.8524C105.716 40.9604 105.569 41.1134 105.461 41.3114C105.353 41.5094 105.299 41.7494 105.299 42.0314C105.299 42.3074 105.353 42.5474 105.461 42.7514C105.569 42.9494 105.716 43.1024 105.902 43.2104C106.088 43.3184 106.298 43.3724 106.532 43.3724ZM110.127 44.4524V37.7744H111.531V44.4524H110.127ZM115.237 44.5244C114.685 44.5244 114.199 44.4164 113.779 44.2004C113.365 43.9844 113.044 43.6904 112.816 43.3184C112.588 42.9404 112.474 42.5114 112.474 42.0314C112.474 41.5454 112.585 41.1164 112.807 40.7444C113.035 40.3664 113.344 40.0724 113.734 39.8624C114.124 39.6464 114.565 39.5384 115.057 39.5384C115.531 39.5384 115.957 39.6404 116.335 39.8444C116.719 40.0424 117.022 40.3304 117.244 40.7084C117.466 41.0804 117.577 41.5274 117.577 42.0494C117.577 42.1034 117.574 42.1664 117.568 42.2384C117.562 42.3044 117.556 42.3674 117.55 42.4274H113.617V41.6084H116.812L116.272 41.8514C116.272 41.5994 116.221 41.3804 116.119 41.1944C116.017 41.0084 115.876 40.8644 115.696 40.7624C115.516 40.6544 115.306 40.6004 115.066 40.6004C114.826 40.6004 114.613 40.6544 114.427 40.7624C114.247 40.8644 114.106 41.0114 114.004 41.2034C113.902 41.3894 113.851 41.6114 113.851 41.8694V42.0854C113.851 42.3494 113.908 42.5834 114.022 42.7874C114.142 42.9854 114.307 43.1384 114.517 43.2464C114.733 43.3484 114.985 43.3994 115.273 43.3994C115.531 43.3994 115.756 43.3604 115.948 43.2824C116.146 43.2044 116.326 43.0874 116.488 42.9314L117.235 43.7414C117.013 43.9934 116.734 44.1884 116.398 44.3264C116.062 44.4584 115.675 44.5244 115.237 44.5244ZM123.4 44.5244C122.878 44.5244 122.413 44.4194 122.005 44.2094C121.597 43.9934 121.276 43.6964 121.042 43.3184C120.814 42.9404 120.7 42.5114 120.7 42.0314C120.7 41.5454 120.814 41.1164 121.042 40.7444C121.276 40.3664 121.597 40.0724 122.005 39.8624C122.413 39.6464 122.878 39.5384 123.4 39.5384C123.91 39.5384 124.354 39.6464 124.732 39.8624C125.11 40.0724 125.389 40.3754 125.569 40.7714L124.48 41.3564C124.354 41.1284 124.195 40.9604 124.003 40.8524C123.817 40.7444 123.613 40.6904 123.391 40.6904C123.151 40.6904 122.935 40.7444 122.743 40.8524C122.551 40.9604 122.398 41.1134 122.284 41.3114C122.176 41.5094 122.122 41.7494 122.122 42.0314C122.122 42.3134 122.176 42.5534 122.284 42.7514C122.398 42.9494 122.551 43.1024 122.743 43.2104C122.935 43.3184 123.151 43.3724 123.391 43.3724C123.613 43.3724 123.817 43.3214 124.003 43.2194C124.195 43.1114 124.354 42.9404 124.48 42.7064L125.569 43.3004C125.389 43.6904 125.11 43.9934 124.732 44.2094C124.354 44.4194 123.91 44.5244 123.4 44.5244ZM126.351 44.4524V37.7744H127.755V44.4524H126.351ZM129.058 44.4524V39.6104H130.462V44.4524H129.058ZM129.76 38.9354C129.502 38.9354 129.292 38.8604 129.13 38.7104C128.968 38.5604 128.887 38.3744 128.887 38.1524C128.887 37.9304 128.968 37.7444 129.13 37.5944C129.292 37.4444 129.502 37.3694 129.76 37.3694C130.018 37.3694 130.228 37.4414 130.39 37.5854C130.552 37.7234 130.633 37.9034 130.633 38.1254C130.633 38.3594 130.552 38.5544 130.39 38.7104C130.234 38.8604 130.024 38.9354 129.76 38.9354ZM134.708 39.5384C135.092 39.5384 135.434 39.6164 135.734 39.7724C136.04 39.9224 136.28 40.1564 136.454 40.4744C136.628 40.7864 136.715 41.1884 136.715 41.6804V44.4524H135.311V41.8964C135.311 41.5064 135.224 41.2184 135.05 41.0324C134.882 40.8464 134.642 40.7534 134.33 40.7534C134.108 40.7534 133.907 40.8014 133.727 40.8974C133.553 40.9874 133.415 41.1284 133.313 41.3204C133.217 41.5124 133.169 41.7584 133.169 42.0584V44.4524H131.765V39.6104H133.106V40.9514L132.854 40.5464C133.028 40.2224 133.277 39.9734 133.601 39.7994C133.925 39.6254 134.294 39.5384 134.708 39.5384ZM137.988 44.4524V39.6104H139.392V44.4524H137.988ZM138.69 38.9354C138.432 38.9354 138.222 38.8604 138.06 38.7104C137.898 38.5604 137.817 38.3744 137.817 38.1524C137.817 37.9304 137.898 37.7444 138.06 37.5944C138.222 37.4444 138.432 37.3694 138.69 37.3694C138.948 37.3694 139.158 37.4414 139.32 37.5854C139.482 37.7234 139.563 37.9034 139.563 38.1254C139.563 38.3594 139.482 38.5544 139.32 38.7104C139.164 38.8604 138.954 38.9354 138.69 38.9354ZM143.035 44.5244C142.513 44.5244 142.048 44.4194 141.64 44.2094C141.232 43.9934 140.911 43.6964 140.677 43.3184C140.449 42.9404 140.335 42.5114 140.335 42.0314C140.335 41.5454 140.449 41.1164 140.677 40.7444C140.911 40.3664 141.232 40.0724 141.64 39.8624C142.048 39.6464 142.513 39.5384 143.035 39.5384C143.545 39.5384 143.989 39.6464 144.367 39.8624C144.745 40.0724 145.024 40.3754 145.204 40.7714L144.115 41.3564C143.989 41.1284 143.83 40.9604 143.638 40.8524C143.452 40.7444 143.248 40.6904 143.026 40.6904C142.786 40.6904 142.57 40.7444 142.378 40.8524C142.186 40.9604 142.033 41.1134 141.919 41.3114C141.811 41.5094 141.757 41.7494 141.757 42.0314C141.757 42.3134 141.811 42.5534 141.919 42.7514C142.033 42.9494 142.186 43.1024 142.378 43.2104C142.57 43.3184 142.786 43.3724 143.026 43.3724C143.248 43.3724 143.452 43.3214 143.638 43.2194C143.83 43.1114 143.989 42.9404 144.115 42.7064L145.204 43.3004C145.024 43.6904 144.745 43.9934 144.367 44.2094C143.989 44.4194 143.545 44.5244 143.035 44.5244ZM148.982 44.4524V43.5074L148.892 43.3004V41.6084C148.892 41.3084 148.799 41.0744 148.613 40.9064C148.433 40.7384 148.154 40.6544 147.776 40.6544C147.518 40.6544 147.263 40.6964 147.011 40.7804C146.765 40.8584 146.555 40.9664 146.381 41.1044L145.877 40.1234C146.141 39.9374 146.459 39.7934 146.831 39.6914C147.203 39.5894 147.581 39.5384 147.965 39.5384C148.703 39.5384 149.276 39.7124 149.684 40.0604C150.092 40.4084 150.296 40.9514 150.296 41.6894V44.4524H148.982ZM147.506 44.5244C147.128 44.5244 146.804 44.4614 146.534 44.3354C146.264 44.2034 146.057 44.0264 145.913 43.8044C145.769 43.5824 145.697 43.3334 145.697 43.0574C145.697 42.7694 145.766 42.5174 145.904 42.3014C146.048 42.0854 146.273 41.9174 146.579 41.7974C146.885 41.6714 147.284 41.6084 147.776 41.6084H149.063V42.4274H147.929C147.599 42.4274 147.371 42.4814 147.245 42.5894C147.125 42.6974 147.065 42.8324 147.065 42.9944C147.065 43.1744 147.134 43.3184 147.272 43.4264C147.416 43.5284 147.611 43.5794 147.857 43.5794C148.091 43.5794 148.301 43.5254 148.487 43.4174C148.673 43.3034 148.808 43.1384 148.892 42.9224L149.108 43.5704C149.006 43.8824 148.82 44.1194 148.55 44.2814C148.28 44.4434 147.932 44.5244 147.506 44.5244ZM151.567 44.4524V37.7744H152.971V44.4524H151.567ZM158.803 44.5244C158.233 44.5244 157.789 44.3804 157.471 44.0924C157.153 43.7984 156.994 43.3634 156.994 42.7874V38.5394H158.398V42.7694C158.398 42.9734 158.452 43.1324 158.56 43.2464C158.668 43.3544 158.815 43.4084 159.001 43.4084C159.223 43.4084 159.412 43.3484 159.568 43.2284L159.946 44.2184C159.802 44.3204 159.628 44.3984 159.424 44.4524C159.226 44.5004 159.019 44.5244 158.803 44.5244ZM156.247 40.7984V39.7184H159.604V40.7984H156.247ZM162.889 44.5244C162.373 44.5244 161.914 44.4164 161.512 44.2004C161.116 43.9844 160.801 43.6904 160.567 43.3184C160.339 42.9404 160.225 42.5114 160.225 42.0314C160.225 41.5454 160.339 41.1164 160.567 40.7444C160.801 40.3664 161.116 40.0724 161.512 39.8624C161.914 39.6464 162.373 39.5384 162.889 39.5384C163.399 39.5384 163.855 39.6464 164.257 39.8624C164.659 40.0724 164.974 40.3634 165.202 40.7354C165.43 41.1074 165.544 41.5394 165.544 42.0314C165.544 42.5114 165.43 42.9404 165.202 43.3184C164.974 43.6904 164.659 43.9844 164.257 44.2004C163.855 44.4164 163.399 44.5244 162.889 44.5244ZM162.889 43.3724C163.123 43.3724 163.333 43.3184 163.519 43.2104C163.705 43.1024 163.852 42.9494 163.96 42.7514C164.068 42.5474 164.122 42.3074 164.122 42.0314C164.122 41.7494 164.068 41.5094 163.96 41.3114C163.852 41.1134 163.705 40.9604 163.519 40.8524C163.333 40.7444 163.123 40.6904 162.889 40.6904C162.655 40.6904 162.445 40.7444 162.259 40.8524C162.073 40.9604 161.923 41.1134 161.809 41.3114C161.701 41.5094 161.647 41.7494 161.647 42.0314C161.647 42.3074 161.701 42.5474 161.809 42.7514C161.923 42.9494 162.073 43.1024 162.259 43.2104C162.445 43.3184 162.655 43.3724 162.889 43.3724ZM168.786 44.5244C168.27 44.5244 167.811 44.4164 167.409 44.2004C167.013 43.9844 166.698 43.6904 166.464 43.3184C166.236 42.9404 166.122 42.5114 166.122 42.0314C166.122 41.5454 166.236 41.1164 166.464 40.7444C166.698 40.3664 167.013 40.0724 167.409 39.8624C167.811 39.6464 168.27 39.5384 168.786 39.5384C169.296 39.5384 169.752 39.6464 170.154 39.8624C170.556 40.0724 170.871 40.3634 171.099 40.7354C171.327 41.1074 171.441 41.5394 171.441 42.0314C171.441 42.5114 171.327 42.9404 171.099 43.3184C170.871 43.6904 170.556 43.9844 170.154 44.2004C169.752 44.4164 169.296 44.5244 168.786 44.5244ZM168.786 43.3724C169.02 43.3724 169.23 43.3184 169.416 43.2104C169.602 43.1024 169.749 42.9494 169.857 42.7514C169.965 42.5474 170.019 42.3074 170.019 42.0314C170.019 41.7494 169.965 41.5094 169.857 41.3114C169.749 41.1134 169.602 40.9604 169.416 40.8524C169.23 40.7444 169.02 40.6904 168.786 40.6904C168.552 40.6904 168.342 40.7444 168.156 40.8524C167.97 40.9604 167.82 41.1134 167.706 41.3114C167.598 41.5094 167.544 41.7494 167.544 42.0314C167.544 42.3074 167.598 42.5474 167.706 42.7514C167.82 42.9494 167.97 43.1024 168.156 43.2104C168.342 43.3184 168.552 43.3724 168.786 43.3724ZM172.379 44.4524V37.7744H173.783V44.4524H172.379ZM176.715 44.5244C176.301 44.5244 175.902 44.4764 175.518 44.3804C175.14 44.2784 174.84 44.1524 174.618 44.0024L175.086 42.9944C175.308 43.1324 175.569 43.2464 175.869 43.3364C176.175 43.4204 176.475 43.4624 176.769 43.4624C177.093 43.4624 177.321 43.4234 177.453 43.3454C177.591 43.2674 177.66 43.1594 177.66 43.0214C177.66 42.9074 177.606 42.8234 177.498 42.7694C177.396 42.7094 177.258 42.6644 177.084 42.6344C176.91 42.6044 176.718 42.5744 176.508 42.5444C176.304 42.5144 176.097 42.4754 175.887 42.4274C175.677 42.3734 175.485 42.2954 175.311 42.1934C175.137 42.0914 174.996 41.9534 174.888 41.7794C174.786 41.6054 174.735 41.3804 174.735 41.1044C174.735 40.7984 174.822 40.5284 174.996 40.2944C175.176 40.0604 175.434 39.8774 175.77 39.7454C176.106 39.6074 176.508 39.5384 176.976 39.5384C177.306 39.5384 177.642 39.5744 177.984 39.6464C178.326 39.7184 178.611 39.8234 178.839 39.9614L178.371 40.9604C178.137 40.8224 177.9 40.7294 177.66 40.6814C177.426 40.6274 177.198 40.6004 176.976 40.6004C176.664 40.6004 176.436 40.6424 176.292 40.7264C176.148 40.8104 176.076 40.9184 176.076 41.0504C176.076 41.1704 176.127 41.2604 176.229 41.3204C176.337 41.3804 176.478 41.4284 176.652 41.4644C176.826 41.5004 177.015 41.5334 177.219 41.5634C177.429 41.5874 177.639 41.6264 177.849 41.6804C178.059 41.7344 178.248 41.8124 178.416 41.9144C178.59 42.0104 178.731 42.1454 178.839 42.3194C178.947 42.4874 179.001 42.7094 179.001 42.9854C179.001 43.2854 178.911 43.5524 178.731 43.7864C178.551 44.0144 178.29 44.1944 177.948 44.3264C177.612 44.4584 177.201 44.5244 176.715 44.5244Z" fill="#C7F0FD"/>
</g>
<path d="M41.1054 0H20.8952L0 53.9955H20.2101L41.1054 0Z" fill="#C7F0FD"/>
<path d="M42.9544 4.80811L32.8151 30.9183L41.7898 53.9958H61.9999L42.9544 4.80811Z" fill="#C7F0FD"/>
<path d="M38.1591 53.9955H28.5679L35.6928 46.377L38.1591 53.9955Z" fill="#C7F0FD"/>
</svg>
