<svg width="216" height="54" viewBox="0 0 216 54" fill="none" xmlns="http://www.w3.org/2000/svg">
<g opacity="0.7">
<path d="M74.1924 30.0278V17.4278H80.3484C81.9324 17.4278 83.1204 17.7278 83.9124 18.3278C84.7164 18.9278 85.1184 19.7198 85.1184 20.7038C85.1184 21.3638 84.9564 21.9398 84.6324 22.4318C84.3084 22.9118 83.8644 23.2838 83.3004 23.5478C82.7364 23.8118 82.0884 23.9438 81.3564 23.9438L81.6984 23.2058C82.4904 23.2058 83.1924 23.3378 83.8044 23.6018C84.4164 23.8538 84.8904 24.2318 85.2264 24.7358C85.5744 25.2398 85.7484 25.8578 85.7484 26.5898C85.7484 27.6698 85.3224 28.5158 84.4704 29.1278C83.6184 29.7278 82.3644 30.0278 80.7084 30.0278H74.1924ZM77.0904 27.8318H80.4924C81.2484 27.8318 81.8184 27.7118 82.2024 27.4718C82.5984 27.2198 82.7964 26.8238 82.7964 26.2838C82.7964 25.7558 82.5984 25.3658 82.2024 25.1138C81.8184 24.8498 81.2484 24.7178 80.4924 24.7178H76.8744V22.5938H79.9884C80.6964 22.5938 81.2364 22.4738 81.6084 22.2338C81.9924 21.9818 82.1844 21.6038 82.1844 21.0998C82.1844 20.6078 81.9924 20.2418 81.6084 20.0018C81.2364 19.7498 80.6964 19.6238 79.9884 19.6238H77.0904V27.8318ZM87.758 30.0278V16.6718H90.566V30.0278H87.758ZM97.2581 30.1718C96.4541 30.1718 95.7341 30.0158 95.0981 29.7038C94.4741 29.3918 93.9881 28.9178 93.6401 28.2818C93.2921 27.6338 93.1181 26.8118 93.1181 25.8158V20.3438H95.9261V25.4018C95.9261 26.2058 96.0941 26.7998 96.4301 27.1838C96.7781 27.5558 97.2641 27.7418 97.8881 27.7418C98.3201 27.7418 98.7041 27.6518 99.0401 27.4718C99.3761 27.2798 99.6401 26.9918 99.8321 26.6078C100.024 26.2118 100.12 25.7198 100.12 25.1318V20.3438H102.928V30.0278H100.264V27.3638L100.75 28.1378C100.426 28.8098 99.9461 29.3198 99.3101 29.6678C98.6861 30.0038 98.0021 30.1718 97.2581 30.1718ZM110.336 30.1718C109.232 30.1718 108.26 29.9558 107.42 29.5238C106.592 29.0918 105.95 28.5038 105.494 27.7598C105.038 27.0038 104.81 26.1458 104.81 25.1858C104.81 24.2138 105.032 23.3558 105.476 22.6118C105.932 21.8558 106.55 21.2678 107.33 20.8478C108.11 20.4158 108.992 20.1998 109.976 20.1998C110.924 20.1998 111.776 20.4038 112.532 20.8118C113.3 21.2078 113.906 21.7838 114.35 22.5398C114.794 23.2838 115.016 24.1778 115.016 25.2218C115.016 25.3298 115.01 25.4558 114.998 25.5998C114.986 25.7318 114.974 25.8578 114.962 25.9778H107.096V24.3398H113.486L112.406 24.8258C112.406 24.3218 112.304 23.8838 112.1 23.5118C111.896 23.1398 111.614 22.8518 111.254 22.6478C110.894 22.4318 110.474 22.3238 109.994 22.3238C109.514 22.3238 109.088 22.4318 108.716 22.6478C108.356 22.8518 108.074 23.1458 107.87 23.5298C107.666 23.9018 107.564 24.3458 107.564 24.8618V25.2938C107.564 25.8218 107.678 26.2898 107.906 26.6978C108.146 27.0938 108.476 27.3998 108.896 27.6158C109.328 27.8198 109.832 27.9218 110.408 27.9218C110.924 27.9218 111.374 27.8438 111.758 27.6878C112.154 27.5318 112.514 27.2978 112.838 26.9858L114.332 28.6058C113.888 29.1098 113.33 29.4998 112.658 29.7758C111.986 30.0398 111.212 30.1718 110.336 30.1718ZM123.113 30.2438C122.141 30.2438 121.235 30.0878 120.395 29.7758C119.567 29.4518 118.847 28.9958 118.235 28.4078C117.623 27.8198 117.143 27.1298 116.795 26.3378C116.459 25.5458 116.291 24.6758 116.291 23.7278C116.291 22.7798 116.459 21.9098 116.795 21.1178C117.143 20.3258 117.623 19.6358 118.235 19.0478C118.859 18.4598 119.585 18.0098 120.413 17.6978C121.241 17.3738 122.147 17.2118 123.131 17.2118C124.223 17.2118 125.207 17.4038 126.083 17.7878C126.971 18.1598 127.715 18.7118 128.315 19.4438L126.443 21.1718C126.011 20.6798 125.531 20.3138 125.003 20.0738C124.475 19.8218 123.899 19.6958 123.275 19.6958C122.687 19.6958 122.147 19.7918 121.655 19.9838C121.163 20.1758 120.737 20.4518 120.377 20.8118C120.017 21.1718 119.735 21.5978 119.531 22.0898C119.339 22.5818 119.243 23.1278 119.243 23.7278C119.243 24.3278 119.339 24.8738 119.531 25.3658C119.735 25.8578 120.017 26.2838 120.377 26.6438C120.737 27.0038 121.163 27.2798 121.655 27.4718C122.147 27.6638 122.687 27.7598 123.275 27.7598C123.899 27.7598 124.475 27.6398 125.003 27.3998C125.531 27.1478 126.011 26.7698 126.443 26.2658L128.315 27.9938C127.715 28.7258 126.971 29.2838 126.083 29.6678C125.207 30.0518 124.217 30.2438 123.113 30.2438ZM130.086 30.0278V20.3438H132.768V23.0798L132.39 22.2878C132.678 21.6038 133.14 21.0878 133.776 20.7398C134.412 20.3798 135.186 20.1998 136.098 20.1998V22.7918C135.978 22.7798 135.87 22.7738 135.774 22.7738C135.678 22.7618 135.576 22.7558 135.468 22.7558C134.7 22.7558 134.076 22.9778 133.596 23.4218C133.128 23.8538 132.894 24.5318 132.894 25.4558V30.0278H130.086ZM142.503 30.1718C141.399 30.1718 140.427 29.9558 139.587 29.5238C138.759 29.0918 138.117 28.5038 137.661 27.7598C137.205 27.0038 136.977 26.1458 136.977 25.1858C136.977 24.2138 137.199 23.3558 137.643 22.6118C138.099 21.8558 138.717 21.2678 139.497 20.8478C140.277 20.4158 141.159 20.1998 142.143 20.1998C143.091 20.1998 143.943 20.4038 144.699 20.8118C145.467 21.2078 146.073 21.7838 146.517 22.5398C146.961 23.2838 147.183 24.1778 147.183 25.2218C147.183 25.3298 147.177 25.4558 147.165 25.5998C147.153 25.7318 147.141 25.8578 147.129 25.9778H139.263V24.3398H145.653L144.573 24.8258C144.573 24.3218 144.471 23.8838 144.267 23.5118C144.063 23.1398 143.781 22.8518 143.421 22.6478C143.061 22.4318 142.641 22.3238 142.161 22.3238C141.681 22.3238 141.255 22.4318 140.883 22.6478C140.523 22.8518 140.241 23.1458 140.037 23.5298C139.833 23.9018 139.731 24.3458 139.731 24.8618V25.2938C139.731 25.8218 139.845 26.2898 140.073 26.6978C140.313 27.0938 140.643 27.3998 141.063 27.6158C141.495 27.8198 141.999 27.9218 142.575 27.9218C143.091 27.9218 143.541 27.8438 143.925 27.6878C144.321 27.5318 144.681 27.2978 145.005 26.9858L146.499 28.6058C146.055 29.1098 145.497 29.4998 144.825 29.7758C144.153 30.0398 143.379 30.1718 142.503 30.1718ZM152.311 30.1718C151.483 30.1718 150.685 30.0758 149.917 29.8838C149.161 29.6798 148.561 29.4278 148.117 29.1278L149.053 27.1118C149.497 27.3878 150.019 27.6158 150.619 27.7958C151.231 27.9638 151.831 28.0478 152.419 28.0478C153.067 28.0478 153.523 27.9698 153.787 27.8138C154.063 27.6578 154.201 27.4418 154.201 27.1658C154.201 26.9378 154.093 26.7698 153.877 26.6618C153.673 26.5418 153.397 26.4518 153.049 26.3918C152.701 26.3318 152.317 26.2718 151.897 26.2118C151.489 26.1518 151.075 26.0738 150.655 25.9778C150.235 25.8698 149.851 25.7138 149.503 25.5098C149.155 25.3058 148.873 25.0298 148.657 24.6818C148.453 24.3338 148.351 23.8838 148.351 23.3318C148.351 22.7198 148.525 22.1798 148.873 21.7118C149.233 21.2438 149.749 20.8778 150.421 20.6138C151.093 20.3378 151.897 20.1998 152.833 20.1998C153.493 20.1998 154.165 20.2718 154.849 20.4158C155.533 20.5598 156.103 20.7698 156.559 21.0458L155.623 23.0438C155.155 22.7678 154.681 22.5818 154.201 22.4858C153.733 22.3778 153.277 22.3238 152.833 22.3238C152.209 22.3238 151.753 22.4078 151.465 22.5758C151.177 22.7438 151.033 22.9598 151.033 23.2238C151.033 23.4638 151.135 23.6438 151.339 23.7638C151.555 23.8838 151.837 23.9798 152.185 24.0518C152.533 24.1238 152.911 24.1898 153.319 24.2498C153.739 24.2978 154.159 24.3758 154.579 24.4838C154.999 24.5918 155.377 24.7478 155.713 24.9518C156.061 25.1438 156.343 25.4138 156.559 25.7618C156.775 26.0978 156.883 26.5418 156.883 27.0938C156.883 27.6938 156.703 28.2278 156.343 28.6958C155.983 29.1518 155.461 29.5118 154.777 29.7758C154.105 30.0398 153.283 30.1718 152.311 30.1718ZM162.575 30.1718C161.435 30.1718 160.547 29.8838 159.911 29.3078C159.275 28.7198 158.957 27.8498 158.957 26.6978V18.2018H161.765V26.6618C161.765 27.0698 161.873 27.3878 162.089 27.6158C162.305 27.8318 162.599 27.9398 162.971 27.9398C163.415 27.9398 163.793 27.8198 164.105 27.5798L164.861 29.5598C164.573 29.7638 164.225 29.9198 163.817 30.0278C163.421 30.1238 163.007 30.1718 162.575 30.1718ZM157.463 22.7198V20.5598H164.177V22.7198H157.463Z" fill="#3366FF"/>
<path d="M76.947 38.2527H78.405V44.5527H76.947V38.2527ZM74.085 44.5527H72.627V38.2527H74.085V44.5527ZM77.055 41.9697H73.977V40.7367H77.055V41.9697ZM79.7966 44.5527V39.7107H81.2006V44.5527H79.7966ZM80.4986 39.0357C80.2406 39.0357 80.0306 38.9607 79.8686 38.8107C79.7066 38.6607 79.6256 38.4747 79.6256 38.2527C79.6256 38.0307 79.7066 37.8447 79.8686 37.6947C80.0306 37.5447 80.2406 37.4697 80.4986 37.4697C80.7566 37.4697 80.9666 37.5417 81.1286 37.6857C81.2906 37.8237 81.3716 38.0037 81.3716 38.2257C81.3716 38.4597 81.2906 38.6547 81.1286 38.8107C80.9726 38.9607 80.7626 39.0357 80.4986 39.0357ZM84.7806 46.3707C84.3246 46.3707 83.8836 46.3137 83.4576 46.1997C83.0376 46.0917 82.6866 45.9267 82.4046 45.7047L82.9626 44.6967C83.1666 44.8647 83.4246 44.9967 83.7366 45.0927C84.0546 45.1947 84.3666 45.2457 84.6726 45.2457C85.1706 45.2457 85.5306 45.1347 85.7526 44.9127C85.9806 44.6907 86.0946 44.3607 86.0946 43.9227V43.1937L86.1846 41.9787L86.1666 40.7547V39.7107H87.4986V43.7427C87.4986 44.6427 87.2646 45.3057 86.7966 45.7317C86.3286 46.1577 85.6566 46.3707 84.7806 46.3707ZM84.5646 44.3187C84.1146 44.3187 83.7066 44.2227 83.3406 44.0307C82.9806 43.8327 82.6896 43.5597 82.4676 43.2117C82.2516 42.8577 82.1436 42.4467 82.1436 41.9787C82.1436 41.5047 82.2516 41.0937 82.4676 40.7457C82.6896 40.3917 82.9806 40.1187 83.3406 39.9267C83.7066 39.7347 84.1146 39.6387 84.5646 39.6387C84.9726 39.6387 85.3326 39.7227 85.6446 39.8907C85.9566 40.0527 86.1996 40.3077 86.3736 40.6557C86.5476 40.9977 86.6346 41.4387 86.6346 41.9787C86.6346 42.5127 86.5476 42.9537 86.3736 43.3017C86.1996 43.6437 85.9566 43.8987 85.6446 44.0667C85.3326 44.2347 84.9726 44.3187 84.5646 44.3187ZM84.8436 43.1667C85.0896 43.1667 85.3086 43.1187 85.5006 43.0227C85.6926 42.9207 85.8426 42.7797 85.9506 42.5997C86.0586 42.4197 86.1126 42.2127 86.1126 41.9787C86.1126 41.7387 86.0586 41.5317 85.9506 41.3577C85.8426 41.1777 85.6926 41.0397 85.5006 40.9437C85.3086 40.8417 85.0896 40.7907 84.8436 40.7907C84.5976 40.7907 84.3786 40.8417 84.1866 40.9437C83.9946 41.0397 83.8416 41.1777 83.7276 41.3577C83.6196 41.5317 83.5656 41.7387 83.5656 41.9787C83.5656 42.2127 83.6196 42.4197 83.7276 42.5997C83.8416 42.7797 83.9946 42.9207 84.1866 43.0227C84.3786 43.1187 84.5976 43.1667 84.8436 43.1667ZM91.7483 39.6387C92.1323 39.6387 92.4743 39.7167 92.7743 39.8727C93.0803 40.0227 93.3203 40.2567 93.4943 40.5747C93.6683 40.8867 93.7553 41.2887 93.7553 41.7807V44.5527H92.3513V41.9967C92.3513 41.6067 92.2643 41.3187 92.0903 41.1327C91.9223 40.9467 91.6823 40.8537 91.3703 40.8537C91.1483 40.8537 90.9473 40.9017 90.7673 40.9977C90.5933 41.0877 90.4553 41.2287 90.3533 41.4207C90.2573 41.6127 90.2093 41.8587 90.2093 42.1587V44.5527H88.8053V37.8747H90.2093V41.0517L89.8943 40.6467C90.0683 40.3227 90.3173 40.0737 90.6413 39.8997C90.9653 39.7257 91.3343 39.6387 91.7483 39.6387ZM94.848 42.5817V41.4567H97.395V42.5817H94.848ZM100.129 44.6247C99.7147 44.6247 99.3157 44.5767 98.9317 44.4807C98.5537 44.3787 98.2537 44.2527 98.0317 44.1027L98.4997 43.0947C98.7217 43.2327 98.9827 43.3467 99.2827 43.4367C99.5887 43.5207 99.8887 43.5627 100.183 43.5627C100.507 43.5627 100.735 43.5237 100.867 43.4457C101.005 43.3677 101.074 43.2597 101.074 43.1217C101.074 43.0077 101.02 42.9237 100.912 42.8697C100.81 42.8097 100.672 42.7647 100.498 42.7347C100.324 42.7047 100.132 42.6747 99.9217 42.6447C99.7177 42.6147 99.5107 42.5757 99.3007 42.5277C99.0907 42.4737 98.8987 42.3957 98.7247 42.2937C98.5507 42.1917 98.4097 42.0537 98.3017 41.8797C98.1997 41.7057 98.1487 41.4807 98.1487 41.2047C98.1487 40.8987 98.2357 40.6287 98.4097 40.3947C98.5897 40.1607 98.8477 39.9777 99.1837 39.8457C99.5197 39.7077 99.9217 39.6387 100.39 39.6387C100.72 39.6387 101.056 39.6747 101.398 39.7467C101.74 39.8187 102.025 39.9237 102.253 40.0617L101.785 41.0607C101.551 40.9227 101.314 40.8297 101.074 40.7817C100.84 40.7277 100.612 40.7007 100.39 40.7007C100.078 40.7007 99.8497 40.7427 99.7057 40.8267C99.5617 40.9107 99.4897 41.0187 99.4897 41.1507C99.4897 41.2707 99.5407 41.3607 99.6427 41.4207C99.7507 41.4807 99.8917 41.5287 100.066 41.5647C100.24 41.6007 100.429 41.6337 100.633 41.6637C100.843 41.6877 101.053 41.7267 101.263 41.7807C101.473 41.8347 101.662 41.9127 101.83 42.0147C102.004 42.1107 102.145 42.2457 102.253 42.4197C102.361 42.5877 102.415 42.8097 102.415 43.0857C102.415 43.3857 102.325 43.6527 102.145 43.8867C101.965 44.1147 101.704 44.2947 101.362 44.4267C101.026 44.5587 100.615 44.6247 100.129 44.6247ZM105.261 44.6247C104.691 44.6247 104.247 44.4807 103.929 44.1927C103.611 43.8987 103.452 43.4637 103.452 42.8877V38.6397H104.856V42.8697C104.856 43.0737 104.91 43.2327 105.018 43.3467C105.126 43.4547 105.273 43.5087 105.459 43.5087C105.681 43.5087 105.87 43.4487 106.026 43.3287L106.404 44.3187C106.26 44.4207 106.086 44.4987 105.882 44.5527C105.684 44.6007 105.477 44.6247 105.261 44.6247ZM102.705 40.8987V39.8187H106.062V40.8987H102.705ZM107.192 44.5527V39.7107H108.533V41.0787L108.344 40.6827C108.488 40.3407 108.719 40.0827 109.037 39.9087C109.355 39.7287 109.742 39.6387 110.198 39.6387V40.9347C110.138 40.9287 110.084 40.9257 110.036 40.9257C109.988 40.9197 109.937 40.9167 109.883 40.9167C109.499 40.9167 109.187 41.0277 108.947 41.2497C108.713 41.4657 108.596 41.8047 108.596 42.2667V44.5527H107.192ZM113.401 44.6247C112.849 44.6247 112.363 44.5167 111.943 44.3007C111.529 44.0847 111.208 43.7907 110.98 43.4187C110.752 43.0407 110.638 42.6117 110.638 42.1317C110.638 41.6457 110.749 41.2167 110.971 40.8447C111.199 40.4667 111.508 40.1727 111.898 39.9627C112.288 39.7467 112.729 39.6387 113.221 39.6387C113.695 39.6387 114.121 39.7407 114.499 39.9447C114.883 40.1427 115.186 40.4307 115.408 40.8087C115.63 41.1807 115.741 41.6277 115.741 42.1497C115.741 42.2037 115.738 42.2667 115.732 42.3387C115.726 42.4047 115.72 42.4677 115.714 42.5277H111.781V41.7087H114.976L114.436 41.9517C114.436 41.6997 114.385 41.4807 114.283 41.2947C114.181 41.1087 114.04 40.9647 113.86 40.8627C113.68 40.7547 113.47 40.7007 113.23 40.7007C112.99 40.7007 112.777 40.7547 112.591 40.8627C112.411 40.9647 112.27 41.1117 112.168 41.3037C112.066 41.4897 112.015 41.7117 112.015 41.9697V42.1857C112.015 42.4497 112.072 42.6837 112.186 42.8877C112.306 43.0857 112.471 43.2387 112.681 43.3467C112.897 43.4487 113.149 43.4997 113.437 43.4997C113.695 43.4997 113.92 43.4607 114.112 43.3827C114.31 43.3047 114.49 43.1877 114.652 43.0317L115.399 43.8417C115.177 44.0937 114.898 44.2887 114.562 44.4267C114.226 44.5587 113.839 44.6247 113.401 44.6247ZM119.618 39.6387C120.002 39.6387 120.344 39.7167 120.644 39.8727C120.95 40.0227 121.19 40.2567 121.364 40.5747C121.538 40.8867 121.625 41.2887 121.625 41.7807V44.5527H120.221V41.9967C120.221 41.6067 120.134 41.3187 119.96 41.1327C119.792 40.9467 119.552 40.8537 119.24 40.8537C119.018 40.8537 118.817 40.9017 118.637 40.9977C118.463 41.0877 118.325 41.2287 118.223 41.4207C118.127 41.6127 118.079 41.8587 118.079 42.1587V44.5527H116.675V39.7107H118.016V41.0517L117.764 40.6467C117.938 40.3227 118.187 40.0737 118.511 39.8997C118.835 39.7257 119.204 39.6387 119.618 39.6387ZM125.21 46.3707C124.754 46.3707 124.313 46.3137 123.887 46.1997C123.467 46.0917 123.116 45.9267 122.834 45.7047L123.392 44.6967C123.596 44.8647 123.854 44.9967 124.166 45.0927C124.484 45.1947 124.796 45.2457 125.102 45.2457C125.6 45.2457 125.96 45.1347 126.182 44.9127C126.41 44.6907 126.524 44.3607 126.524 43.9227V43.1937L126.614 41.9787L126.596 40.7547V39.7107H127.928V43.7427C127.928 44.6427 127.694 45.3057 127.226 45.7317C126.758 46.1577 126.086 46.3707 125.21 46.3707ZM124.994 44.3187C124.544 44.3187 124.136 44.2227 123.77 44.0307C123.41 43.8327 123.119 43.5597 122.897 43.2117C122.681 42.8577 122.573 42.4467 122.573 41.9787C122.573 41.5047 122.681 41.0937 122.897 40.7457C123.119 40.3917 123.41 40.1187 123.77 39.9267C124.136 39.7347 124.544 39.6387 124.994 39.6387C125.402 39.6387 125.762 39.7227 126.074 39.8907C126.386 40.0527 126.629 40.3077 126.803 40.6557C126.977 40.9977 127.064 41.4387 127.064 41.9787C127.064 42.5127 126.977 42.9537 126.803 43.3017C126.629 43.6437 126.386 43.8987 126.074 44.0667C125.762 44.2347 125.402 44.3187 124.994 44.3187ZM125.273 43.1667C125.519 43.1667 125.738 43.1187 125.93 43.0227C126.122 42.9207 126.272 42.7797 126.38 42.5997C126.488 42.4197 126.542 42.2127 126.542 41.9787C126.542 41.7387 126.488 41.5317 126.38 41.3577C126.272 41.1777 126.122 41.0397 125.93 40.9437C125.738 40.8417 125.519 40.7907 125.273 40.7907C125.027 40.7907 124.808 40.8417 124.616 40.9437C124.424 41.0397 124.271 41.1777 124.157 41.3577C124.049 41.5317 123.995 41.7387 123.995 41.9787C123.995 42.2127 124.049 42.4197 124.157 42.5997C124.271 42.7797 124.424 42.9207 124.616 43.0227C124.808 43.1187 125.027 43.1667 125.273 43.1667ZM131.215 44.6247C130.645 44.6247 130.201 44.4807 129.883 44.1927C129.565 43.8987 129.406 43.4637 129.406 42.8877V38.6397H130.81V42.8697C130.81 43.0737 130.864 43.2327 130.972 43.3467C131.08 43.4547 131.227 43.5087 131.413 43.5087C131.635 43.5087 131.824 43.4487 131.98 43.3287L132.358 44.3187C132.214 44.4207 132.04 44.4987 131.836 44.5527C131.638 44.6007 131.431 44.6247 131.215 44.6247ZM128.659 40.8987V39.8187H132.016V40.8987H128.659ZM136.089 39.6387C136.473 39.6387 136.815 39.7167 137.115 39.8727C137.421 40.0227 137.661 40.2567 137.835 40.5747C138.009 40.8867 138.096 41.2887 138.096 41.7807V44.5527H136.692V41.9967C136.692 41.6067 136.605 41.3187 136.431 41.1327C136.263 40.9467 136.023 40.8537 135.711 40.8537C135.489 40.8537 135.288 40.9017 135.108 40.9977C134.934 41.0877 134.796 41.2287 134.694 41.4207C134.598 41.6127 134.55 41.8587 134.55 42.1587V44.5527H133.146V37.8747H134.55V41.0517L134.235 40.6467C134.409 40.3227 134.658 40.0737 134.982 39.8997C135.306 39.7257 135.675 39.6387 136.089 39.6387ZM144.258 44.6247C143.736 44.6247 143.271 44.5197 142.863 44.3097C142.455 44.0937 142.134 43.7967 141.9 43.4187C141.672 43.0407 141.558 42.6117 141.558 42.1317C141.558 41.6457 141.672 41.2167 141.9 40.8447C142.134 40.4667 142.455 40.1727 142.863 39.9627C143.271 39.7467 143.736 39.6387 144.258 39.6387C144.768 39.6387 145.212 39.7467 145.59 39.9627C145.968 40.1727 146.247 40.4757 146.427 40.8717L145.338 41.4567C145.212 41.2287 145.053 41.0607 144.861 40.9527C144.675 40.8447 144.471 40.7907 144.249 40.7907C144.009 40.7907 143.793 40.8447 143.601 40.9527C143.409 41.0607 143.256 41.2137 143.142 41.4117C143.034 41.6097 142.98 41.8497 142.98 42.1317C142.98 42.4137 143.034 42.6537 143.142 42.8517C143.256 43.0497 143.409 43.2027 143.601 43.3107C143.793 43.4187 144.009 43.4727 144.249 43.4727C144.471 43.4727 144.675 43.4217 144.861 43.3197C145.053 43.2117 145.212 43.0407 145.338 42.8067L146.427 43.4007C146.247 43.7907 145.968 44.0937 145.59 44.3097C145.212 44.5197 144.768 44.6247 144.258 44.6247ZM149.577 44.6247C149.025 44.6247 148.539 44.5167 148.119 44.3007C147.705 44.0847 147.384 43.7907 147.156 43.4187C146.928 43.0407 146.814 42.6117 146.814 42.1317C146.814 41.6457 146.925 41.2167 147.147 40.8447C147.375 40.4667 147.684 40.1727 148.074 39.9627C148.464 39.7467 148.905 39.6387 149.397 39.6387C149.871 39.6387 150.297 39.7407 150.675 39.9447C151.059 40.1427 151.362 40.4307 151.584 40.8087C151.806 41.1807 151.917 41.6277 151.917 42.1497C151.917 42.2037 151.914 42.2667 151.908 42.3387C151.902 42.4047 151.896 42.4677 151.89 42.5277H147.957V41.7087H151.152L150.612 41.9517C150.612 41.6997 150.561 41.4807 150.459 41.2947C150.357 41.1087 150.216 40.9647 150.036 40.8627C149.856 40.7547 149.646 40.7007 149.406 40.7007C149.166 40.7007 148.953 40.7547 148.767 40.8627C148.587 40.9647 148.446 41.1117 148.344 41.3037C148.242 41.4897 148.191 41.7117 148.191 41.9697V42.1857C148.191 42.4497 148.248 42.6837 148.362 42.8877C148.482 43.0857 148.647 43.2387 148.857 43.3467C149.073 43.4487 149.325 43.4997 149.613 43.4997C149.871 43.4997 150.096 43.4607 150.288 43.3827C150.486 43.3047 150.666 43.1877 150.828 43.0317L151.575 43.8417C151.353 44.0937 151.074 44.2887 150.738 44.4267C150.402 44.5587 150.015 44.6247 149.577 44.6247ZM152.851 44.5527V39.7107H154.192V41.0787L154.003 40.6827C154.147 40.3407 154.378 40.0827 154.696 39.9087C155.014 39.7287 155.401 39.6387 155.857 39.6387V40.9347C155.797 40.9287 155.743 40.9257 155.695 40.9257C155.647 40.9197 155.596 40.9167 155.542 40.9167C155.158 40.9167 154.846 41.0277 154.606 41.2497C154.372 41.4657 154.255 41.8047 154.255 42.2667V44.5527H152.851ZM159.346 44.5527V43.6077L159.256 43.4007V41.7087C159.256 41.4087 159.163 41.1747 158.977 41.0067C158.797 40.8387 158.518 40.7547 158.14 40.7547C157.882 40.7547 157.627 40.7967 157.375 40.8807C157.129 40.9587 156.919 41.0667 156.745 41.2047L156.241 40.2237C156.505 40.0377 156.823 39.8937 157.195 39.7917C157.567 39.6897 157.945 39.6387 158.329 39.6387C159.067 39.6387 159.64 39.8127 160.048 40.1607C160.456 40.5087 160.66 41.0517 160.66 41.7897V44.5527H159.346ZM157.87 44.6247C157.492 44.6247 157.168 44.5617 156.898 44.4357C156.628 44.3037 156.421 44.1267 156.277 43.9047C156.133 43.6827 156.061 43.4337 156.061 43.1577C156.061 42.8697 156.13 42.6177 156.268 42.4017C156.412 42.1857 156.637 42.0177 156.943 41.8977C157.249 41.7717 157.648 41.7087 158.14 41.7087H159.427V42.5277H158.293C157.963 42.5277 157.735 42.5817 157.609 42.6897C157.489 42.7977 157.429 42.9327 157.429 43.0947C157.429 43.2747 157.498 43.4187 157.636 43.5267C157.78 43.6287 157.975 43.6797 158.221 43.6797C158.455 43.6797 158.665 43.6257 158.851 43.5177C159.037 43.4037 159.172 43.2387 159.256 43.0227L159.472 43.6707C159.37 43.9827 159.184 44.2197 158.914 44.3817C158.644 44.5437 158.296 44.6247 157.87 44.6247ZM168.131 39.6387C168.515 39.6387 168.854 39.7167 169.148 39.8727C169.448 40.0227 169.682 40.2567 169.85 40.5747C170.024 40.8867 170.111 41.2887 170.111 41.7807V44.5527H168.707V41.9967C168.707 41.6067 168.626 41.3187 168.464 41.1327C168.302 40.9467 168.074 40.8537 167.78 40.8537C167.576 40.8537 167.393 40.9017 167.231 40.9977C167.069 41.0877 166.943 41.2257 166.853 41.4117C166.763 41.5977 166.718 41.8347 166.718 42.1227V44.5527H165.314V41.9967C165.314 41.6067 165.233 41.3187 165.071 41.1327C164.915 40.9467 164.69 40.8537 164.396 40.8537C164.192 40.8537 164.009 40.9017 163.847 40.9977C163.685 41.0877 163.559 41.2257 163.469 41.4117C163.379 41.5977 163.334 41.8347 163.334 42.1227V44.5527H161.93V39.7107H163.271V41.0337L163.019 40.6467C163.187 40.3167 163.424 40.0677 163.73 39.8997C164.042 39.7257 164.396 39.6387 164.792 39.6387C165.236 39.6387 165.623 39.7527 165.953 39.9807C166.289 40.2027 166.511 40.5447 166.619 41.0067L166.124 40.8717C166.286 40.4937 166.544 40.1937 166.898 39.9717C167.258 39.7497 167.669 39.6387 168.131 39.6387ZM171.37 44.5527V39.7107H172.774V44.5527H171.37ZM172.072 39.0357C171.814 39.0357 171.604 38.9607 171.442 38.8107C171.28 38.6607 171.199 38.4747 171.199 38.2527C171.199 38.0307 171.28 37.8447 171.442 37.6947C171.604 37.5447 171.814 37.4697 172.072 37.4697C172.33 37.4697 172.54 37.5417 172.702 37.6857C172.864 37.8237 172.945 38.0037 172.945 38.2257C172.945 38.4597 172.864 38.6547 172.702 38.8107C172.546 38.9607 172.336 39.0357 172.072 39.0357ZM176.417 44.6247C175.895 44.6247 175.43 44.5197 175.022 44.3097C174.614 44.0937 174.293 43.7967 174.059 43.4187C173.831 43.0407 173.717 42.6117 173.717 42.1317C173.717 41.6457 173.831 41.2167 174.059 40.8447C174.293 40.4667 174.614 40.1727 175.022 39.9627C175.43 39.7467 175.895 39.6387 176.417 39.6387C176.927 39.6387 177.371 39.7467 177.749 39.9627C178.127 40.1727 178.406 40.4757 178.586 40.8717L177.497 41.4567C177.371 41.2287 177.212 41.0607 177.02 40.9527C176.834 40.8447 176.63 40.7907 176.408 40.7907C176.168 40.7907 175.952 40.8447 175.76 40.9527C175.568 41.0607 175.415 41.2137 175.301 41.4117C175.193 41.6097 175.139 41.8497 175.139 42.1317C175.139 42.4137 175.193 42.6537 175.301 42.8517C175.415 43.0497 175.568 43.2027 175.76 43.3107C175.952 43.4187 176.168 43.4727 176.408 43.4727C176.63 43.4727 176.834 43.4217 177.02 43.3197C177.212 43.2117 177.371 43.0407 177.497 42.8067L178.586 43.4007C178.406 43.7907 178.127 44.0937 177.749 44.3097C177.371 44.5197 176.927 44.6247 176.417 44.6247ZM184.283 44.6247C183.761 44.6247 183.296 44.5197 182.888 44.3097C182.48 44.0937 182.159 43.7967 181.925 43.4187C181.697 43.0407 181.583 42.6117 181.583 42.1317C181.583 41.6457 181.697 41.2167 181.925 40.8447C182.159 40.4667 182.48 40.1727 182.888 39.9627C183.296 39.7467 183.761 39.6387 184.283 39.6387C184.793 39.6387 185.237 39.7467 185.615 39.9627C185.993 40.1727 186.272 40.4757 186.452 40.8717L185.363 41.4567C185.237 41.2287 185.078 41.0607 184.886 40.9527C184.7 40.8447 184.496 40.7907 184.274 40.7907C184.034 40.7907 183.818 40.8447 183.626 40.9527C183.434 41.0607 183.281 41.2137 183.167 41.4117C183.059 41.6097 183.005 41.8497 183.005 42.1317C183.005 42.4137 183.059 42.6537 183.167 42.8517C183.281 43.0497 183.434 43.2027 183.626 43.3107C183.818 43.4187 184.034 43.4727 184.274 43.4727C184.496 43.4727 184.7 43.4217 184.886 43.3197C185.078 43.2117 185.237 43.0407 185.363 42.8067L186.452 43.4007C186.272 43.7907 185.993 44.0937 185.615 44.3097C185.237 44.5197 184.793 44.6247 184.283 44.6247ZM187.26 44.5527V39.7107H188.601V41.0787L188.412 40.6827C188.556 40.3407 188.787 40.0827 189.105 39.9087C189.423 39.7287 189.81 39.6387 190.266 39.6387V40.9347C190.206 40.9287 190.152 40.9257 190.104 40.9257C190.056 40.9197 190.005 40.9167 189.951 40.9167C189.567 40.9167 189.255 41.0277 189.015 41.2497C188.781 41.4657 188.664 41.8047 188.664 42.2667V44.5527H187.26ZM193.37 44.6247C192.854 44.6247 192.395 44.5167 191.993 44.3007C191.597 44.0847 191.282 43.7907 191.048 43.4187C190.82 43.0407 190.706 42.6117 190.706 42.1317C190.706 41.6457 190.82 41.2167 191.048 40.8447C191.282 40.4667 191.597 40.1727 191.993 39.9627C192.395 39.7467 192.854 39.6387 193.37 39.6387C193.88 39.6387 194.336 39.7467 194.738 39.9627C195.14 40.1727 195.455 40.4637 195.683 40.8357C195.911 41.2077 196.025 41.6397 196.025 42.1317C196.025 42.6117 195.911 43.0407 195.683 43.4187C195.455 43.7907 195.14 44.0847 194.738 44.3007C194.336 44.5167 193.88 44.6247 193.37 44.6247ZM193.37 43.4727C193.604 43.4727 193.814 43.4187 194 43.3107C194.186 43.2027 194.333 43.0497 194.441 42.8517C194.549 42.6477 194.603 42.4077 194.603 42.1317C194.603 41.8497 194.549 41.6097 194.441 41.4117C194.333 41.2137 194.186 41.0607 194 40.9527C193.814 40.8447 193.604 40.7907 193.37 40.7907C193.136 40.7907 192.926 40.8447 192.74 40.9527C192.554 41.0607 192.404 41.2137 192.29 41.4117C192.182 41.6097 192.128 41.8497 192.128 42.1317C192.128 42.4077 192.182 42.6477 192.29 42.8517C192.404 43.0497 192.554 43.2027 192.74 43.3107C192.926 43.4187 193.136 43.4727 193.37 43.4727ZM197.939 44.5527L196.193 39.7107H197.516L198.965 43.8777H198.335L199.847 39.7107H201.035L202.502 43.8777H201.872L203.366 39.7107H204.608L202.853 44.5527H201.494L200.207 40.9797H200.621L199.289 44.5527H197.939ZM208.203 39.6387C208.587 39.6387 208.929 39.7167 209.229 39.8727C209.535 40.0227 209.775 40.2567 209.949 40.5747C210.123 40.8867 210.21 41.2887 210.21 41.7807V44.5527H208.806V41.9967C208.806 41.6067 208.719 41.3187 208.545 41.1327C208.377 40.9467 208.137 40.8537 207.825 40.8537C207.603 40.8537 207.402 40.9017 207.222 40.9977C207.048 41.0877 206.91 41.2287 206.808 41.4207C206.712 41.6127 206.664 41.8587 206.664 42.1587V44.5527H205.26V39.7107H206.601V41.0517L206.349 40.6467C206.523 40.3227 206.772 40.0737 207.096 39.8997C207.42 39.7257 207.789 39.6387 208.203 39.6387ZM213.112 44.6247C212.698 44.6247 212.299 44.5767 211.915 44.4807C211.537 44.3787 211.237 44.2527 211.015 44.1027L211.483 43.0947C211.705 43.2327 211.966 43.3467 212.266 43.4367C212.572 43.5207 212.872 43.5627 213.166 43.5627C213.49 43.5627 213.718 43.5237 213.85 43.4457C213.988 43.3677 214.057 43.2597 214.057 43.1217C214.057 43.0077 214.003 42.9237 213.895 42.8697C213.793 42.8097 213.655 42.7647 213.481 42.7347C213.307 42.7047 213.115 42.6747 212.905 42.6447C212.701 42.6147 212.494 42.5757 212.284 42.5277C212.074 42.4737 211.882 42.3957 211.708 42.2937C211.534 42.1917 211.393 42.0537 211.285 41.8797C211.183 41.7057 211.132 41.4807 211.132 41.2047C211.132 40.8987 211.219 40.6287 211.393 40.3947C211.573 40.1607 211.831 39.9777 212.167 39.8457C212.503 39.7077 212.905 39.6387 213.373 39.6387C213.703 39.6387 214.039 39.6747 214.381 39.7467C214.723 39.8187 215.008 39.9237 215.236 40.0617L214.768 41.0607C214.534 40.9227 214.297 40.8297 214.057 40.7817C213.823 40.7277 213.595 40.7007 213.373 40.7007C213.061 40.7007 212.833 40.7427 212.689 40.8267C212.545 40.9107 212.473 41.0187 212.473 41.1507C212.473 41.2707 212.524 41.3607 212.626 41.4207C212.734 41.4807 212.875 41.5287 213.049 41.5647C213.223 41.6007 213.412 41.6337 213.616 41.6637C213.826 41.6877 214.036 41.7267 214.246 41.7807C214.456 41.8347 214.645 41.9127 214.813 42.0147C214.987 42.1107 215.128 42.2457 215.236 42.4197C215.344 42.5877 215.398 42.8097 215.398 43.0857C215.398 43.3857 215.308 43.6527 215.128 43.8867C214.948 44.1147 214.687 44.2947 214.345 44.4267C214.009 44.5587 213.598 44.6247 213.112 44.6247Z" fill="#3366FF"/>
</g>
<path d="M1.56379 28.6319C1.9192 28.916 2.2746 29.2002 2.63001 29.4844C2.98542 29.7686 3.41192 29.9817 3.76733 30.2659C4.19382 30.5501 4.6203 30.7633 5.04679 30.9764C5.47328 31.1895 5.89979 31.4027 6.39736 31.6158C7.32143 31.9711 8.31655 32.3263 9.3117 32.4684C10.3068 32.6815 11.3731 32.7526 12.4393 32.7526C13.5055 32.7526 14.5718 32.6105 15.5669 32.3973C15.9223 32.3263 16.2066 32.2552 16.491 32.1132C15.7091 30.5501 15.2826 28.845 15.2826 26.9978C15.2826 24.1559 16.2777 21.5982 17.9126 19.6089C17.5572 19.0405 17.2018 18.4721 16.8464 17.9038C16.2066 16.767 15.7091 15.5592 15.2826 14.2093C14.8561 12.8594 14.5718 11.4385 14.4296 10.0175C14.2874 8.5966 14.2874 7.10462 14.4296 5.68368C14.5007 4.97321 14.6428 4.26274 14.785 3.55227C14.8561 3.33912 14.8561 3.12598 14.9272 2.91284C6.11304 7.31776 0 16.4828 0 27.0688C0 27.1399 0 27.282 0 27.353C0.497573 27.7082 0.995132 28.1345 1.56379 28.6319Z" fill="#3366FF"/>
<path d="M26.727 0C26.5849 0.142094 26.3716 0.284186 26.2295 0.497327C25.6608 1.0657 25.0922 1.70513 24.5235 2.34455C24.2392 2.69978 23.9549 3.05502 23.6705 3.41025C23.3862 3.76549 23.1729 4.19177 22.8886 4.54701C22.6043 4.97329 22.391 5.39957 22.1778 5.82585C21.9646 6.25213 21.7513 6.67842 21.5381 7.17574C21.1827 8.09936 20.8272 9.09401 20.6851 10.0887C20.4718 11.0833 20.4008 12.149 20.4008 13.2147C20.4008 14.2804 20.5429 15.3461 20.7562 16.3408C20.8272 16.5539 20.8983 16.7671 20.8983 16.9802C22.6754 15.9145 24.7368 15.2751 26.9403 15.2751C29.8546 15.2751 32.5557 16.3408 34.546 18.117C34.7593 17.9749 34.9725 17.8328 35.2569 17.6907C36.3942 17.0513 37.6026 16.5539 38.9531 16.1277C40.3037 15.7014 41.7253 15.4172 43.1469 15.2751C44.5686 15.133 46.0613 15.133 47.4829 15.2751C48.1938 15.3461 48.9046 15.4882 49.6154 15.6303C50.2551 15.7724 50.9659 15.9145 51.6057 16.1277C47.4118 6.67841 37.958 0.0710459 26.8692 0.0710459C26.9403 -1.08515e-06 26.8692 0 26.727 0Z" fill="#3366FF"/>
<path d="M26.1589 53.4983C26.7275 52.93 27.2962 52.2905 27.8648 51.6511C28.1491 51.2959 28.4335 50.9406 28.7178 50.5854C29.0021 50.2302 29.2154 49.8039 29.4997 49.4487C29.784 49.0224 29.9973 48.5961 30.2105 48.1698C30.4238 47.7435 30.637 47.3172 30.8503 46.8199C31.2057 45.8963 31.5611 44.9016 31.7032 43.907C31.9165 42.9123 31.9876 41.8466 31.9876 40.7809C31.9876 39.7863 31.8454 38.7916 31.6322 37.7969C30.2105 38.3653 28.6467 38.7206 27.0829 38.7206C23.8131 38.7206 20.8988 37.3707 18.7663 35.3103C18.2688 35.6655 17.7001 36.0208 17.1315 36.305C15.9941 36.9444 14.7858 37.4417 13.4352 37.868C12.0847 38.2943 10.663 38.5785 9.24139 38.7206C7.81975 38.8627 6.32703 38.8627 4.90539 38.7206C4.19458 38.6495 3.48376 38.5074 2.77294 38.3653C2.70186 38.3653 2.70185 38.3653 2.63077 38.3653C6.75351 47.1751 15.4966 53.4273 25.8034 53.9957C25.8034 53.7825 25.9456 53.6404 26.1589 53.4983Z" fill="#3366FF"/>
<path d="M53.5246 27.8503C53.2403 27.5661 53.027 27.353 52.7427 27.0688C52.1741 26.5004 51.5343 25.932 50.8946 25.3636C50.5392 25.0795 50.1837 24.7953 49.8283 24.5111C49.4729 24.2269 49.0464 24.0138 48.691 23.7296C48.2645 23.4454 47.838 23.2322 47.4116 23.0191C46.9851 22.806 46.5586 22.5928 46.061 22.3797C45.1369 22.0244 44.1418 21.6692 43.1466 21.5271C42.1515 21.314 41.0853 21.2429 40.0191 21.2429C39.1661 21.2429 38.3131 21.385 37.389 21.5271C38.242 23.1612 38.7396 25.0084 38.7396 26.9977C38.7396 30.3369 37.3179 33.3209 35.1144 35.4523C35.2566 35.6655 35.3987 35.8786 35.4698 36.0917C36.1096 37.2285 36.6071 38.4363 37.0336 39.7862C37.4601 41.1361 37.7444 42.557 37.8866 43.978C38.0288 45.3989 38.0288 46.8909 37.8866 48.3118C37.8155 49.0223 37.6734 49.7328 37.5312 50.4432C37.389 50.9406 37.3179 51.4379 37.1758 51.9352C46.6297 48.0987 53.3824 39.0757 53.88 28.3476C53.8089 28.2055 53.6668 28.0634 53.5246 27.8503Z" fill="#3366FF"/>
<path d="M27.0116 31.1895C29.367 31.1895 31.2765 29.2809 31.2765 26.9266C31.2765 24.5723 29.367 22.6638 27.0116 22.6638C24.6561 22.6638 22.7466 24.5723 22.7466 26.9266C22.7466 29.2809 24.6561 31.1895 27.0116 31.1895Z" fill="#3366FF"/>
</svg>
